<svg width="24" height="24" viewBox="0 0 24 24" xmlns="http://www.w3.org/2000/svg">
<path d="M21.1667 3.66668H16.8573C16.5141 2.69563 15.5887 2 14.5 2C13.4113 2 12.4859 2.69563 12.1427 3.66668H10.1906C9.84746 2.69563 8.92211 2 7.83332 2C6.74453 2 5.81922 2.69563 5.47605 3.66668H2.83332C2.37309 3.66668 2 4.03977 2 4.5V8.66668V21.1667C2 21.6269 2.37309 22 2.83332 22H21.1666C21.6269 22 22 21.6269 22 21.1667V8.66668V4.5C22 4.03977 21.6269 3.66668 21.1667 3.66668ZM3.66668 5.33332H6.16668C6.62691 5.33332 7 4.96023 7 4.5C7 4.03941 7.37273 3.66668 7.83332 3.66668C8.29391 3.66668 8.66668 4.03941 8.66668 4.5C8.66668 4.96059 8.29395 5.33332 7.83336 5.33332C7.37313 5.33332 7.00004 5.70641 7.00004 6.16664C7.00004 6.62687 7.37313 6.99996 7.83336 6.99996C8.92211 6.99996 9.8475 6.30434 10.1906 5.33328H12.8334C13.2936 5.33328 13.6667 4.9602 13.6667 4.49996C13.6667 4.03938 14.0394 3.66664 14.5 3.66664C14.9606 3.66664 15.3333 4.03941 15.3333 4.5C15.3333 4.96059 14.9606 5.33332 14.5 5.33332C14.0398 5.33332 13.6667 5.70641 13.6667 6.16664C13.6667 6.62687 14.0398 6.99996 14.5 6.99996C15.5887 6.99996 16.5141 6.30434 16.8573 5.33328H20.3333V7.83328H3.66668V5.33332ZM20.3333 20.3333H3.66668V9.5H20.3334V20.3333H20.3333Z"/>
</svg>
