<svg width="24" height="24" viewBox="0 0 24 24" xmlns="http://www.w3.org/2000/svg">
<path d="M22.3555 6.00111H16.5278V4.68144C16.5278 3.20288 15.3603 2 13.9253 2H10.0747C8.63971 2 7.47221 3.20288 7.47221 4.68144V6.00111H1.64453C1.28858 6.00111 1 6.29844 1 6.66519V18.7294C1 20.5328 2.42403 22 4.17432 22H19.8257C21.576 22 23 20.5328 23 18.7294V6.66519C23 6.29844 22.7114 6.00111 22.3555 6.00111ZM13.4624 14.6674C13.4624 15.4983 12.8064 16.1742 12 16.1742C11.1936 16.1742 10.5376 15.4983 10.5376 14.6674V13.1606H13.4624V14.6674ZM14.107 11.8324H9.89303C9.53707 11.8324 9.2485 12.1298 9.2485 12.4965V13.7028C5.50042 12.8646 2.69073 10.3598 2.32924 7.32928H21.6707C21.3092 10.3598 18.4996 12.8646 14.7515 13.7028V12.4966C14.7515 12.1298 14.4629 11.8324 14.107 11.8324ZM8.76123 4.68144C8.76123 3.93523 9.35046 3.32817 10.0747 3.32817H13.9253C14.6495 3.32817 15.2387 3.93523 15.2387 4.68144V6.00111H8.76119V4.68144H8.76123ZM21.7109 18.7294C21.7109 19.8005 20.8652 20.6718 19.8257 20.6718H4.17432C3.13482 20.6718 2.28906 19.8005 2.28906 18.7294V10.7539C2.80941 11.5206 3.48033 12.2285 4.29085 12.8549C5.69537 13.9402 7.41003 14.6937 9.27617 15.0655C9.46463 16.4408 10.614 17.5023 12 17.5023C13.386 17.5023 14.5354 16.4408 14.7238 15.0655C16.59 14.6937 18.3046 13.9402 19.7092 12.8549C20.5197 12.2285 21.1906 11.5205 21.7109 10.7539V18.7294Z"/>
</svg>
