<svg width="24" height="24" viewBox="0 0 24 24" xmlns="http://www.w3.org/2000/svg">
<path d="M20.9566 8.57825H18.6005V4.51276C18.6005 3.12722 17.5533 2 16.2661 2H3.33414C2.04711 2 1 3.12722 1 4.51276V12.1197C1 13.5051 2.04711 14.6324 3.33414 14.6324H5.03288V17.2625C5.03288 17.5823 5.21176 17.8706 5.48628 17.9929C5.57717 18.0334 5.67258 18.0531 5.76717 18.0531C5.95828 18.0531 6.1462 17.9727 6.28665 17.8215L8.33249 15.6189V17.0017C8.33249 18.2146 9.24916 19.2014 10.376 19.2014H16.062L18.4465 21.7684C18.587 21.9197 18.7749 22 18.9661 22C19.0607 22 19.156 21.9803 19.2469 21.9398C19.5214 21.8175 19.7003 21.5293 19.7003 21.2095V19.2014H20.9567C22.0834 19.2014 23 18.2146 23 17.0017V10.7779C22.9999 9.56498 22.0833 8.57825 20.9566 8.57825ZM5.76717 13.0513H3.33414C2.8571 13.0513 2.46888 12.6334 2.46888 12.1198V4.51276C2.46888 3.99906 2.85703 3.58104 3.33414 3.58104H16.2662C16.7434 3.58104 17.1316 3.99898 17.1316 4.51276V12.1197C17.1316 12.6333 16.7434 13.0512 16.2662 13.0512H8.94464C8.7499 13.0512 8.56309 13.1346 8.42523 13.2828L6.50161 15.3537V13.8418C6.50161 13.4052 6.1728 13.0513 5.76717 13.0513ZM21.531 17.0016C21.531 17.3427 21.2734 17.6204 20.9566 17.6204H18.9659C18.5603 17.6204 18.2314 17.9742 18.2314 18.4108V19.3008L16.8855 17.8519C16.7479 17.7036 16.561 17.6204 16.3662 17.6204H10.3759C10.0591 17.6204 9.8013 17.3428 9.8013 17.0016V14.6323H16.2661C17.5533 14.6323 18.6005 13.5051 18.6005 12.1196V10.1592H20.9566C21.2733 10.1592 21.531 10.4367 21.531 10.7778V17.0016Z"/>
</svg>
