<svg width="21" height="24" viewBox="0 0 21 24" xmlns="http://www.w3.org/2000/svg">
<path d="M13.2042 24H3.89791C1.74854 24 0 22.3178 0 20.25V7.54688C0 5.47906 1.74854 3.79688 3.89791 3.79688H13.2042C15.3535 3.79688 17.1021 5.47906 17.1021 7.54688V20.25C17.1021 22.3178 15.3535 24 13.2042 24ZM3.89791 5.67188C2.82332 5.67188 1.94896 6.51306 1.94896 7.54688V20.25C1.94896 21.2838 2.82332 22.125 3.89791 22.125H13.2042C14.2788 22.125 15.1531 21.2838 15.1531 20.25V7.54688C15.1531 6.51306 14.2788 5.67188 13.2042 5.67188H3.89791ZM21 17.9062V3.75C21 1.68219 19.2515 0 17.1021 0H6.28538C5.74714 0 5.3109 0.419678 5.3109 0.9375C5.3109 1.45532 5.74714 1.875 6.28538 1.875H17.1021C18.1767 1.875 19.051 2.71619 19.051 3.75V17.9062C19.051 18.4241 19.4873 18.8438 20.0255 18.8438C20.5638 18.8438 21 18.4241 21 17.9062Z"/>
</svg>
