<svg width="24" height="24" viewBox="0 0 24 24" xmlns="http://www.w3.org/2000/svg">
<path fill-rule="evenodd" clip-rule="evenodd" d="M19.1772 2.00093C20.1514 2.02067 21.1186 2.38236 21.8592 3.09974C23.3802 4.57406 23.3802 6.97525 21.8601 8.4485L14.9629 15.1294C13.9499 16.1066 12.6074 16.6442 11.1813 16.6442H8.89616C8.33205 16.6442 7.87604 16.2025 7.87604 15.6561V13.4426C7.87604 12.0612 8.43101 10.7609 9.43891 9.78059L16.3453 3.09084C17.1206 2.33886 18.1519 1.9792 19.1772 2.00093ZM11.1813 14.668C12.0637 14.668 12.8962 14.335 13.5215 13.7312L18.0734 9.32209L15.4353 6.76675L10.8824 11.1769C10.2601 11.7816 9.91633 12.5879 9.91633 13.4427V14.668H11.1813ZM19.5159 7.92488L20.4167 7.05232C21.143 6.34778 21.143 5.20153 20.4166 4.49703C19.6903 3.79348 18.5069 3.79149 17.7785 4.49703L16.8778 5.36954L19.5159 7.92488ZM17.3021 15.9318C17.3021 15.3854 17.7581 14.9437 18.3223 14.9437C18.8864 14.9437 19.3424 15.3854 19.3423 15.9318V19.0356C19.3423 20.671 17.9692 22 16.2819 22H5.0604C3.37309 22 2 20.67 2 19.0356V6.18969C2 4.5553 3.37309 3.22524 5.0604 3.22531H10.9874C11.5515 3.22531 12.0075 3.66702 12.0075 4.21344C12.0075 4.75987 11.5515 5.20157 10.9874 5.20157H5.0604C4.49731 5.20157 4.04028 5.64422 4.04028 6.18969V19.0356C4.04028 19.581 4.49727 20.0237 5.0604 20.0237H16.282C16.8451 20.0237 17.3021 19.581 17.3021 19.0356V15.9318Z"/>
</svg>
