<svg width="24" height="24" viewBox="0 0 24 24" xmlns="http://www.w3.org/2000/svg">
<path fill-rule="evenodd" clip-rule="evenodd" d="M21.1667 4.17389H18.9475C18.5858 2.92087 17.4833 2 16.1667 2C14.85 2 13.7475 2.92087 13.3858 4.17389H2.83332C2.37332 4.17389 2 4.56344 2 5.04344C2 5.52343 2.37332 5.91298 2.83332 5.91298H13.3858C13.7475 7.16605 14.85 8.08691 16.1667 8.08691C17.4834 8.08691 18.5859 7.16605 18.9475 5.91302H21.1667C21.6275 5.91302 22 5.52348 22 5.04348C22 4.56348 21.6275 4.17389 21.1667 4.17389ZM16.1667 6.34778C15.4775 6.34778 14.9167 5.76258 14.9167 5.04344C14.9167 4.3243 15.4775 3.7391 16.1667 3.7391C16.8559 3.7391 17.4167 4.3243 17.4167 5.04344C17.4167 5.76258 16.8558 6.34778 16.1667 6.34778ZM21.1667 18.0869H18.9475C18.5867 16.8339 17.4833 15.913 16.1667 15.913C14.85 15.913 13.7475 16.8339 13.3859 18.0869H2.83332C2.37332 18.0869 2 18.4765 2 18.9565C2 19.4365 2.37332 19.8261 2.83332 19.8261H13.3858C13.7466 21.0791 14.85 22 16.1666 22C17.4833 22 18.5858 21.0791 18.9475 19.8261H21.1666C21.6275 19.8261 22 19.4365 22 18.9565C22 18.4765 21.6275 18.0869 21.1667 18.0869ZM16.1667 20.2609C15.4775 20.2609 14.9167 19.6757 14.9167 18.9565C14.9167 18.2374 15.4775 17.6522 16.1667 17.6522C16.8559 17.6522 17.4167 18.2374 17.4167 18.9565C17.4167 19.6757 16.8558 20.2609 16.1667 20.2609ZM10.6142 11.1304H21.1667C21.6275 11.1304 22 11.5199 22 11.9999C22 12.4799 21.6275 12.8695 21.1666 12.8695H10.6141C10.2525 14.1225 9.14996 15.0433 7.83332 15.0433C6.51668 15.0433 5.41418 14.1225 5.0525 12.8695H2.83332C2.37332 12.8695 2 12.4799 2 11.9999C2 11.5199 2.37332 11.1304 2.83332 11.1304H5.05254C5.41418 9.87733 6.51672 8.95646 7.83336 8.95646C9.15 8.95646 10.2525 9.87733 10.6142 11.1304ZM6.58332 11.9999C6.58332 12.719 7.14414 13.3042 7.83332 13.3042C8.5225 13.3042 9.08332 12.719 9.08332 11.9999C9.08332 11.2808 8.5225 10.6956 7.83332 10.6956C7.14414 10.6956 6.58332 11.2808 6.58332 11.9999Z"/>
</svg>
