<svg id="Layer_1" enable-background="new 0 0 511.868 511.868" height="512" viewBox="0 0 511.868 511.868" width="512" xmlns="http://www.w3.org/2000/svg"><g><path d="m255.942 484.092-214.526-214.522c-55.223-55.226-55.222-145.084.002-200.308 26.753-26.753 62.322-41.486 100.155-41.486 37.834 0 73.403 14.733 100.155 41.486l14.205 14.205 14.205-14.205c26.752-26.753 62.321-41.486 100.155-41.486 37.833 0 73.402 14.733 100.155 41.485 55.224 55.225 55.225 145.083.002 200.309zm-114.368-426.316c-29.82 0-57.855 11.613-78.942 32.699-43.527 43.528-43.527 114.354-.002 157.882l193.305 193.315 193.305-193.315c43.525-43.529 43.525-114.354-.002-157.882-21.087-21.086-49.122-32.699-78.942-32.699s-57.856 11.612-78.942 32.699l-35.418 35.418-35.418-35.418c-21.088-21.086-49.124-32.699-78.944-32.699z"/></g></svg>