<svg width="24" height="24" viewBox="0 0 24 24" xmlns="http://www.w3.org/2000/svg">
<path d="M22.9847 8.35032C22.9787 8.27443 22.9719 8.21627 22.9658 8.17633C22.6581 4.7288 20.1011 2 16.7826 2C14.8601 2 13.1032 2.8999 11.9528 4.35877C10.8293 2.89008 9.13933 2 7.22699 2C3.91981 2 1.36871 4.71032 1.04024 8.19592C1.03393 8.23653 1.02757 8.28599 1.02177 8.34416C0.965632 8.90729 1.01232 9.65347 1.22928 10.5626C1.69026 12.4943 2.76822 14.2536 4.28861 15.6169L11.3686 21.7743C11.7134 22.0742 12.2295 22.0753 12.5756 21.7769L19.7075 15.6296C21.3885 13.8992 22.3875 12.3425 22.7837 10.5487C22.9824 9.6479 23.0287 8.90661 22.9847 8.35032ZM20.9932 10.1621C20.6816 11.5729 19.8527 12.8645 18.4438 14.3193L11.9766 19.8892L5.5091 14.2647C4.26855 13.1522 3.38693 11.7132 3.01293 10.1462C2.84314 9.43461 2.80903 8.88915 2.84958 8.48275L2.86251 8.39157C3.09824 5.76674 4.92931 3.81284 7.22699 3.81284C8.93753 3.81284 10.3928 4.84475 11.1001 6.50208C11.4153 7.24061 12.4733 7.24061 12.7885 6.50208C13.4816 4.87798 15.0401 3.81284 16.7826 3.81284C19.0804 3.81284 20.9114 5.76687 21.1471 8.39247C21.1534 8.44524 21.1551 8.45985 21.1576 8.49159C21.1879 8.87505 21.1527 9.43886 20.9932 10.1621Z"/>
</svg>
