<svg width="24" height="24" viewBox="0 0 24 24" xmlns="http://www.w3.org/2000/svg">
<path fill-rule="evenodd" clip-rule="evenodd" d="M18.3 7.83336V8.66668C19.7886 8.66668 21 9.78832 21 11.1667V19.5C21 20.8783 19.7886 22 18.3 22H5.7C4.21141 22 3 20.8783 3 19.5V11.1666C3 9.78832 4.21141 8.66664 5.7 8.66664V7.83332C5.7 4.6175 8.52597 2 12 2C15.474 2 18.3 4.6175 18.3 7.83336ZM12 3.66664C9.51868 3.66664 7.49997 5.53582 7.49997 7.83332V8.66664H16.5V7.83332C16.5 5.53582 14.4813 3.66664 12 3.66664ZM18.3 20.3333C18.7959 20.3333 19.2 19.96 19.2 19.5V11.1667C19.2 10.7067 18.7959 10.3334 18.3 10.3334H5.7C5.20413 10.3334 4.80001 10.7067 4.80001 11.1667V19.5C4.80001 19.96 5.20408 20.3333 5.7 20.3333H18.3ZM9.29997 14.0834C9.29997 12.7051 10.5114 11.5834 12 11.5834C13.4886 11.5834 14.7 12.7051 14.7 14.0834C14.7 15.1684 13.9449 16.0851 12.9 16.43V17.8334C12.9 18.2942 12.4968 18.6667 12 18.6667C11.5032 18.6667 11.1 18.2942 11.1 17.8334V16.43C10.0551 16.0851 9.29997 15.1684 9.29997 14.0834ZM11.1 14.0834C11.1 14.5434 11.5041 14.9167 12 14.9167C12.4959 14.9167 12.9 14.5434 12.9 14.0834C12.9 13.6234 12.4959 13.2501 12 13.2501C11.5041 13.2501 11.1 13.6234 11.1 14.0834Z"/>
</svg>
