<svg width="52" height="16" viewBox="0 0 52 16" xmlns="http://www.w3.org/2000/svg">
<path fill-rule="evenodd" clip-rule="evenodd" d="M36.649 10.5141C36.649 13.6683 33.7952 15.7711 29.3643 15.7711C27.4868 15.7711 25.6844 15.3956 24.7081 14.945L25.3089 11.4904L25.8346 11.7157C27.1864 12.3165 28.0876 12.5418 29.7398 12.5418C30.9414 12.5418 32.2181 12.0912 32.2181 11.0398C32.2181 10.3639 31.6924 9.91325 30.0402 9.16225C28.4631 8.41125 26.3603 7.20964 26.3603 5.03173C26.3603 2.02771 29.2892 0 33.4197 0C34.9968 0 36.3486 0.300402 37.1747 0.675904L36.5739 3.98032L36.2735 3.67992C35.5225 3.37952 34.5462 3.07912 33.1193 3.07912C31.5422 3.15422 30.7912 3.83012 30.7912 4.43092C30.7912 5.10683 31.6924 5.63253 33.1193 6.30843C35.5225 7.43494 36.649 8.71165 36.649 10.5141ZM47.9141 0.225425H44.6848C43.7085 0.225425 42.9575 0.525827 42.5068 1.50213L36.3486 15.5459H40.7044C40.7044 15.5459 41.4554 13.6684 41.6056 13.2178H46.9378C47.088 13.7435 47.4635 15.4708 47.4635 15.4708H51.3687L47.9141 0.225425ZM42.8073 10.0636C43.1828 9.16237 44.4595 5.78286 44.4595 5.78286C44.4595 5.85796 44.835 4.88165 44.9852 4.35595L45.2856 5.70775C45.2856 5.70775 46.1117 9.38768 46.2619 10.1387H42.8073V10.0636ZM0.0751004 0.0752556L0 0.375657C5.03173 1.57726 8.33614 4.50618 9.76305 8.111L8.33614 1.35196C8.11084 0.375657 7.43494 0.0752556 6.53373 0.0752556H0.0751004ZM18.8502 0.22527L12.3165 15.4707H7.88554L4.13052 2.70358C6.83413 4.43089 9.08714 7.13451 9.91325 9.01202L10.3639 10.5891L14.4193 0.15017H18.8502V0.22527ZM24.7081 0.15017H20.5775L17.949 15.4707H22.0795L24.7081 0.15017Z"/>
</svg>
