<svg width="53" height="15" viewBox="0 0 53 15" xmlns="http://www.w3.org/2000/svg">
<g>
<path d="M20.4923 0V14.9032H24.7689C24.7689 14.9032 25.8381 14.9032 26.4213 13.8387C29.3371 8.129 30.2119 6.38708 30.2119 6.38708H30.7951V14.9032H35.6549V0H31.3783C31.3783 0 30.3091 0.0967797 29.7259 1.06452C27.296 5.99998 25.9353 8.5161 25.9353 8.5161H25.3521V0H20.4923Z"/>
<path d="M36.7241 0H46.7353C49.6511 0 52.0811 2.41934 52.0811 5.32256C52.0811 5.61291 52.0811 6.09683 51.9839 6.38708H44.0138C40.5147 6.38708 37.3072 3.29031 36.7241 0Z"/>
<path d="M37.5988 14.9998V6.96757H51.7894C51.1091 9.09659 49.0679 10.7417 46.7352 10.7417H42.4586V14.9998H37.5988Z"/>
<path d="M0.0810547 0.0968397V15H4.74649V6.96779H5.32968L8.05116 15H10.1895L12.911 6.96779H13.4942V15H18.354V0.0968397H13.4942C13.4942 0.0968397 12.1334 0.0968368 11.3558 2.22586C9.6063 7.2581 9.21753 8.61294 9.21753 8.61294C9.21753 8.61294 9.02312 7.83874 7.0792 2.22586C6.30163 0.0968368 4.94087 0.0968397 4.94087 0.0968397H0.0810547Z"/>
</g>
</svg>
