<svg width="58" height="23" viewBox="0 0 58 23" xmlns="http://www.w3.org/2000/svg">
<path fill-rule="evenodd" clip-rule="evenodd" d="M13.5835 5.04735C12.6226 4.13711 11.3396 3.63892 10.0119 3.66046C7.58344 3.66046 5.52222 5.2862 4.78515 7.47697L4.78511 7.47695C4.39545 8.62493 4.39545 9.86811 4.78511 11.0161L4.78507 11.0161H4.78515C5.52222 13.2069 7.58344 14.8326 10.0119 14.8326C11.2701 14.8326 12.3459 14.5116 13.1813 13.9491V13.9478C13.6662 13.6284 14.0809 13.2148 14.4005 12.7319C14.7201 12.249 14.9379 11.7068 15.0408 11.1381H10.0119V7.57713H18.7921C18.8996 8.1981 18.9532 8.82707 18.9524 9.45714C18.9524 12.2707 17.9399 14.6503 16.1826 16.2593H16.1809L16.1826 16.2606C14.6399 17.6732 12.5244 18.4925 10.0119 18.4925C8.28613 18.4924 6.59434 18.016 5.12542 17.1164C3.6565 16.2169 2.46825 14.9296 1.69333 13.3982V13.3982L1.69329 13.3982C1.04141 12.11 0.701904 10.6882 0.701904 9.24652C0.701904 7.80479 1.04141 6.38305 1.69329 5.09484H1.69335C2.46826 3.56352 3.65651 2.27622 5.12542 1.37666C6.59434 0.477099 8.28613 0.000684729 10.0119 0.00060662C12.3235 -0.0262054 14.5558 0.836691 16.2408 2.4084L13.5835 5.04735ZM27.3653 10.8621V17.3792H25.2834V1.28487H30.805C31.4641 1.27119 32.1194 1.38728 32.733 1.62642C33.3467 1.86556 33.9066 2.22302 34.3805 2.67818C34.8591 3.1057 35.24 3.63001 35.4976 4.21587C35.7552 4.80173 35.8835 5.43556 35.874 6.07478C35.8877 6.7174 35.7613 7.35538 35.5035 7.94497C35.2457 8.53456 34.8626 9.06183 34.3805 9.49063C33.4149 10.405 32.2231 10.8617 30.805 10.8608H27.3653V10.8621ZM27.3653 3.26632V8.88451H30.8567C31.2395 8.89578 31.6204 8.82759 31.9751 8.6843C32.3298 8.54101 32.6505 8.32578 32.9167 8.05238C33.1814 7.79675 33.3919 7.491 33.5356 7.15319C33.6793 6.81539 33.7533 6.4524 33.7533 6.08569C33.7533 5.71898 33.6793 5.35599 33.5356 5.01819C33.3919 4.68039 33.1814 4.37463 32.9167 4.119C32.6538 3.83984 32.3343 3.61933 31.9791 3.47211C31.624 3.32488 31.2414 3.2543 30.8567 3.26504H27.3653V3.26632ZM40.6714 6.00792C42.2102 6.00792 43.4249 6.41629 44.3154 7.23301C45.2059 8.04973 45.6508 9.16952 45.6499 10.5924V17.3791H43.6585V15.851H43.568C42.7059 17.1095 41.5594 17.7387 40.1283 17.7387C38.9068 17.7387 37.8848 17.3791 37.0624 16.66C36.6677 16.33 36.3522 15.9166 36.1387 15.4501C35.9253 14.9835 35.8194 14.4756 35.8288 13.9633C35.8288 12.8238 36.2624 11.9176 37.1296 11.2447C37.9969 10.5718 39.1546 10.2345 40.6029 10.2328C41.8391 10.2328 42.8572 10.4575 43.6572 10.907V10.4344C43.6596 10.0851 43.5836 9.73973 43.4349 9.42322C43.2862 9.10672 43.0684 8.82704 42.7973 8.60449C42.2468 8.11122 41.5293 7.84207 40.7878 7.85069C39.6249 7.85069 38.7046 8.33781 38.027 9.31206L36.1934 8.16531C37.202 6.72705 38.6947 6.00792 40.6714 6.00792ZM37.9779 14.0082C37.9765 14.2714 38.0384 14.531 38.1586 14.7655C38.2787 15.0001 38.4535 15.2027 38.6684 15.3566C39.1289 15.7163 39.7004 15.9068 40.2861 15.8959C41.1646 15.8945 42.0067 15.5472 42.6279 14.9303C43.3176 14.2856 43.6624 13.5292 43.6624 12.6611C43.0133 12.1475 42.1081 11.8906 40.9469 11.8906C40.1012 11.8906 39.396 12.0931 38.8314 12.4981C38.2611 12.909 37.9779 13.4085 37.9779 14.0082ZM50.1292 22.2333L57.0809 6.36758H54.8141L51.6008 14.278H51.5555L48.2516 6.36758H45.9887L50.5598 16.6819L47.9801 22.2333H50.1292Z"/>
</svg>
