<svg width="56" height="24" viewBox="0 0 56 24" xmlns="http://www.w3.org/2000/svg">
<path fill-rule="evenodd" clip-rule="evenodd" d="M11.8312 0C11.9692 1.10868 11.5093 2.21736 10.8655 3.04887C10.1757 3.88038 9.11803 4.48092 8.01437 4.34233C7.87641 3.27984 8.42824 2.12497 9.02606 1.43204C9.71585 0.64673 10.8655 0.046195 11.8312 0ZM9.3101 5.17513C10.0092 4.90214 10.8774 4.56314 11.8312 4.6195C12.429 4.6657 14.1765 4.85048 15.2341 6.5135C15.1422 6.55969 13.1648 7.71456 13.2108 10.1167C13.2108 12.7396 15.2934 13.7354 15.6795 13.9199C15.715 13.9369 15.7361 13.947 15.74 13.9509C15.74 13.9971 15.3721 15.2905 14.4524 16.6302C13.6706 17.8313 12.8429 18.9399 11.5553 18.9861C10.915 19.0091 10.4907 18.8265 10.0507 18.637C9.60587 18.4455 9.1449 18.247 8.42824 18.247C7.66755 18.247 7.18183 18.4575 6.71256 18.6608C6.30241 18.8385 5.90482 19.0108 5.34719 19.0323C4.10558 19.0785 3.13988 17.7851 2.35812 16.6302C0.702628 14.2743 -0.493003 9.97812 1.16249 7.06784C1.99023 5.5896 3.46178 4.71189 5.07128 4.6657C5.77284 4.6657 6.44503 4.93117 7.02979 5.16211C7.47994 5.33989 7.87828 5.4972 8.19831 5.4972C8.48526 5.4972 8.86313 5.34966 9.3101 5.17513ZM31.0995 7.06787C31.0995 3.69563 28.7542 1.33969 25.3513 1.33969H18.8213V18.8014H21.5344V12.8422H25.2593C28.7082 12.8422 31.0995 10.4863 31.0995 7.06787ZM24.6155 10.5787H21.5344H21.4885V3.64944H24.6155C26.9608 3.64944 28.2944 4.8967 28.2944 7.11406C28.2944 9.28523 26.9608 10.5787 24.6155 10.5787ZM36.5258 11.4564C33.4908 11.6412 31.7893 13.027 31.7893 15.2444C31.7893 17.5079 33.5367 19.0786 36.1119 19.0786C37.7674 19.0786 39.3769 18.2009 40.1127 16.7688H40.1587V18.8476H42.6419V10.0705C42.6419 7.48362 40.6645 5.8668 37.5835 5.8668C34.4565 5.8668 32.4791 7.57601 32.3411 9.88576H34.8243C35.0543 8.77708 35.974 8.03796 37.4915 8.03796C39.055 8.03796 40.0207 8.86947 40.0207 10.3015V11.2716L36.5258 11.4564ZM40.0207 13.0732V14.0895C40.0207 15.7525 38.5952 16.9998 36.7557 16.9998C35.3762 16.9998 34.4565 16.2607 34.4565 15.152C34.4565 14.0433 35.3302 13.3504 36.8937 13.258L40.0207 13.0732ZM44.9412 21.4345V23.5595C45.0541 23.5822 45.2669 23.5937 45.4759 23.6051C45.6926 23.6168 45.9053 23.6284 45.9989 23.6519C48.6201 23.6519 49.8617 22.6818 50.9654 19.5867L55.7019 6.14397H52.9428L49.7237 16.5378H49.6778L46.4588 6.14397H43.6536L48.2522 18.8938C48.2522 18.8938 48.0223 19.6329 48.0223 19.6791C47.6084 20.9726 46.9646 21.4807 45.769 21.4807C45.585 21.4807 45.1252 21.4807 44.9412 21.4345Z"/>
</svg>
