<svg width="39" height="21" viewBox="0 0 39 21" xmlns="http://www.w3.org/2000/svg">
<path d="M27.2088 0.52564C24.5102 0.52564 22.032 1.38596 20.1022 2.81523C18.0051 1.07294 15.203 6.18081e-07 12.1167 6.18081e-07C5.62917 -0.00196807 0.368652 4.69926 0.368652 10.499C0.368652 16.2988 5.62917 21 12.1167 21C15.2052 21 18.0051 19.9271 20.1022 18.1848C22.032 19.6121 24.5102 20.4724 27.2088 20.4724C33.3615 20.4724 38.3687 15.9995 38.3687 10.499C38.3687 4.9985 33.3615 0.52564 27.2088 0.52564ZM27.2088 17.8757C25.2262 17.8757 23.4 17.2457 21.9769 16.1944C23.1642 14.5545 23.8648 12.6016 23.8648 10.499C23.8648 8.39646 23.1642 6.44352 21.9769 4.8036C23.4 3.75626 25.2262 3.12628 27.2088 3.12628C31.7556 3.12628 35.4564 6.43367 35.4564 10.499C35.4564 14.5644 31.7556 17.8757 27.2088 17.8757Z"/>
</svg>
