<svg width="24" height="24" viewBox="0 0 24 24" xmlns="http://www.w3.org/2000/svg">
<path d="M20.0817 18.6365L19.5423 17.8008C18.5721 16.3166 17.2332 14.6132 15.477 14.6132C15.1516 14.6132 14.8294 14.6739 14.5105 14.7969L13.5678 15.1719C13.4818 15.205 13.3981 15.2427 13.3096 15.2827C13.0683 15.3916 12.7947 15.5148 12.5134 15.5148C11.8192 15.5148 11.015 14.6767 10.2491 13.1549C9.49744 11.6612 9.54539 10.8781 9.71793 10.4841C9.90832 10.0494 10.351 9.86356 10.8267 9.69653C10.8928 9.67326 10.9526 9.65215 11.0106 9.62996L11.9652 9.25706C14.4519 8.29216 13.5268 4.9202 13.2235 3.81468L12.9662 2.86418C12.7463 2.08081 12.1633 0 10.2293 0C9.87122 0 9.48928 0.0773956 9.09438 0.23013C8.83528 0.325603 5.26966 1.67608 3.97788 4.0486C2.434 6.87262 2.71946 10.6596 4.82554 15.3019C6.91586 19.9501 9.62647 22.7932 12.8821 23.752C13.4406 23.9167 14.0717 24 14.7581 24C14.7581 24 14.7584 24 14.7585 24C17.0053 24 19.2231 23.113 19.4031 23.0394C20.1777 22.7349 20.6784 22.2722 20.8912 21.664C21.2519 20.6325 20.6468 19.5024 20.0817 18.6365ZM19.2266 21.1628C19.1771 21.3041 19.0052 21.4332 18.7158 21.5462C18.7111 21.5481 18.7052 21.5504 18.7003 21.5525C18.6803 21.5607 16.6728 22.3765 14.758 22.3764C14.2515 22.3764 13.7985 22.3186 13.4116 22.2045C10.6688 21.3967 8.32349 18.8641 6.4393 14.6744C4.54112 10.49 4.2378 7.16207 5.53903 4.78197C6.54943 2.92631 9.71268 1.74914 9.74371 1.73788C9.75001 1.7355 9.7562 1.73323 9.76238 1.73085C9.9425 1.6607 10.104 1.62368 10.2293 1.62368C10.6148 1.62368 10.9657 2.17855 11.2707 3.26609L11.5268 4.21259C12.0793 6.22596 11.9951 7.48529 11.2878 7.7598L10.3379 8.13109C10.3001 8.14559 10.2559 8.16085 10.2071 8.17806C9.68235 8.36241 8.59041 8.74581 8.09658 9.87287C7.64849 10.8956 7.83398 12.1939 8.66309 13.842C9.77976 16.0603 11.0391 17.1386 12.5131 17.1386C13.1972 17.1386 13.7463 16.891 14.0744 16.7431C14.1348 16.7158 14.1888 16.6908 14.2469 16.6685L15.1909 16.2929C15.2884 16.2552 15.3819 16.2369 15.4769 16.2369C15.9313 16.2369 16.746 16.6545 18.0435 18.639L18.5826 19.4743C19.247 20.4921 19.2995 20.9543 19.2266 21.1628Z"/>
</svg>
