<svg width="24" height="24" viewBox="0 0 24 24" xmlns="http://www.w3.org/2000/svg">
<path fill-rule="evenodd" clip-rule="evenodd" d="M7.59591 16.5599C8.04898 16.5027 8.46123 16.8295 8.51837 17.2828L8.89797 20.3745C8.95104 20.8278 8.62858 21.2403 8.17551 21.2975L5.13056 21.6773C4.59994 21.7182 4.25707 21.3751 4.20401 20.9544C4.15095 20.497 4.4734 20.0845 4.92647 20.0273L5.93874 19.9007C2.56724 17.3441 1.17946 12.9618 2.48561 8.90626C3.79992 4.80989 7.67346 1.99593 11.947 2.00001C12.5021 2.00001 12.8287 2.39209 12.8205 2.84951C12.8083 3.30693 12.4735 3.65817 11.947 3.65817C8.38368 3.66633 5.15913 6.00654 4.06115 9.41678C2.96317 12.827 4.15095 16.5109 7.01222 18.6346L6.87345 17.487C6.8163 17.0296 7.14284 16.6171 7.59591 16.5599ZM19.0735 3.97678L18.0612 4.10339C21.4327 6.66005 22.8205 11.0423 21.5144 15.0897C20.2001 19.1861 16.3265 22 12.0489 22C11.4938 22 11.1672 21.6079 11.1754 21.1505C11.1876 20.6931 11.5223 20.3419 12.0489 20.3419C15.6122 20.3337 18.8368 17.9935 19.9347 14.5833C21.0327 11.173 19.8449 7.48913 16.9837 5.36538L17.1224 6.51302C17.1796 6.97044 16.8531 7.38294 16.4 7.44012C15.9469 7.49729 15.5347 7.17056 15.4775 6.71723L15.102 3.62963C15.0489 3.17629 15.3714 2.76379 15.8245 2.70662L18.8694 2.32679C19.4 2.28595 19.7429 2.62902 19.796 3.04968C19.849 3.5071 19.5266 3.9196 19.0735 3.97678Z"/>
</svg>
