<svg width="24" height="24" viewBox="0 0 24 24" xmlns="http://www.w3.org/2000/svg">
<path d="M1.38577 11.5998L6.44368 13.5653L8.41539 20.1766C8.50112 20.6233 9.01548 20.7126 9.35839 20.4446L12.1874 18.0324C12.4445 17.7644 12.8732 17.7644 13.2161 18.0324L18.274 21.8741C18.6169 22.1421 19.1313 21.9634 19.217 21.5167L22.989 2.75507C23.0747 2.30836 22.6461 1.86166 22.2174 2.04034L1.38577 10.4384C0.87141 10.6171 0.87141 11.4212 1.38577 11.5998ZM8.15822 12.5826L18.1025 6.23937C18.274 6.15003 18.4454 6.41806 18.274 6.5074L10.1299 14.4588C9.87275 14.7268 9.61556 15.0841 9.61556 15.5309L9.35839 17.675C9.35839 17.9431 8.92975 18.0324 8.84402 17.675L7.81529 13.744C7.55811 13.2973 7.72958 12.7613 8.15822 12.5826Z"/>
</svg>
