<svg width="24" height="24" viewBox="0 0 24 24" xmlns="http://www.w3.org/2000/svg">
<path fill-rule="evenodd" clip-rule="evenodd" d="M19.7946 4.19714C17.7265 2.13652 14.9761 1.00121 12.046 1C6.00821 1 1.09431 5.89025 1.09188 11.9008C1.09107 13.8221 1.59542 15.6977 2.55404 17.351L1 23L6.80695 21.484C8.407 22.3526 10.2084 22.8104 12.0416 22.8109H12.0461C18.0833 22.8109 22.9977 17.9203 23 11.9095C23.0012 8.99648 21.8629 6.25763 19.7946 4.19714ZM12.046 20.9699H12.0422C10.4086 20.9692 8.80637 20.5323 7.4083 19.7068L7.07599 19.5104L3.63005 20.4101L4.54982 17.0664L4.33327 16.7236C3.42187 15.2809 2.9406 13.6135 2.94141 11.9014C2.9433 6.90565 7.02768 2.84121 12.0497 2.84121C14.4815 2.84202 16.7675 3.78572 18.4864 5.49843C20.2053 7.21113 21.1514 9.48767 21.1506 11.9088C21.1485 16.905 17.0643 20.9699 12.046 20.9699ZM17.04 14.1836C16.7664 14.0472 15.4207 13.3884 15.1697 13.2974C14.9191 13.2065 14.7364 13.1612 14.5541 13.4338C14.3715 13.7064 13.8471 14.32 13.6873 14.5017C13.5276 14.6835 13.3681 14.7064 13.0944 14.5699C12.8206 14.4336 11.9387 14.1459 10.8932 13.2179C10.0796 12.4956 9.53037 11.6036 9.37062 11.331C9.21114 11.0582 9.36927 10.925 9.4907 10.7751C9.78699 10.4089 10.0837 10.025 10.1749 9.84337C10.2662 9.66156 10.2205 9.50244 10.152 9.36615C10.0837 9.22986 9.53631 7.8891 9.30829 7.34353C9.08593 6.8126 8.86048 6.8843 8.69236 6.87598C8.53288 6.86805 8.35033 6.86644 8.16778 6.86644C7.98537 6.86644 7.68881 6.93452 7.43785 7.20737C7.18703 7.48009 6.48003 8.13899 6.48003 9.47975C6.48003 10.8205 7.46079 12.1157 7.5976 12.2976C7.73441 12.4794 9.52767 15.2307 12.2732 16.4105C12.9262 16.6914 13.436 16.8588 13.8336 16.9844C14.4893 17.1917 15.0858 17.1624 15.5575 17.0923C16.0834 17.0141 17.1767 16.4333 17.405 15.7971C17.633 15.1608 17.633 14.6155 17.5645 14.5017C17.4962 14.3881 17.3137 14.32 17.04 14.1836Z"/>
</svg>
