<svg width="24" height="24" viewBox="0 0 24 24" xmlns="http://www.w3.org/2000/svg">
<path d="M18.7107 22C18.5388 22 18.3681 21.9483 18.2217 21.8474L12.69 18.0338L9.72316 20.2036C9.49047 20.3736 9.19055 20.4164 8.92036 20.3183C8.65051 20.2198 8.44558 19.9927 8.37243 19.711L6.88271 13.9731L1.5598 11.9046C1.2247 11.7743 1.00246 11.4485 1.00002 11.0838C0.997582 10.7192 1.21541 10.3903 1.54888 10.2554L21.7886 2.07029C21.8804 2.03064 21.9776 2.00774 22.0756 2.00161C22.1107 1.99948 22.1458 1.99948 22.1808 2.00149C22.3838 2.01376 22.5831 2.09779 22.7387 2.25285C22.7549 2.2689 22.7702 2.2853 22.7847 2.30241C22.9136 2.45205 22.9844 2.63449 22.9978 2.82035C23.001 2.86709 23.0008 2.91441 22.9967 2.96173C22.9939 2.99548 22.9892 3.02911 22.9824 3.06251L19.5661 21.2806C19.5112 21.5733 19.3152 21.8183 19.0444 21.9324C18.937 21.9777 18.8235 22 18.7107 22ZM13.1757 16.2297L18.1032 19.6266L20.7614 5.45089L11.1605 14.8404L13.1525 16.2138C13.1605 16.2189 13.1682 16.2243 13.1757 16.2297ZM9.07386 15.4743L9.73361 18.0151L11.155 16.9755L9.29377 15.6923C9.20727 15.6328 9.13319 15.5587 9.07386 15.4743ZM4.26694 11.0613L7.92191 12.4815C8.18374 12.5832 8.38137 12.807 8.45289 13.0824L8.91641 14.8678C8.93766 14.6618 9.0295 14.4681 9.17871 14.3221L18.327 5.37537L4.26694 11.0613Z"/>
</svg>
