<svg width="24" height="24" viewBox="0 0 24 24" xmlns="http://www.w3.org/2000/svg">
<path d="M17.4799 1.52218C13.8499 0.825941 10.0803 0.825941 6.45026 1.52218C4.84468 1.8703 2.82024 3.81976 2.4712 5.35149C1.84293 8.34531 1.84293 11.4088 2.4712 14.4026C2.89005 15.9343 4.91448 17.8838 6.45026 18.2319C6.52007 18.2319 6.58987 18.3015 6.58987 18.3711V22.7574C6.58987 22.9663 6.86911 23.1055 7.00873 22.8967L9.10297 20.7383C9.10297 20.7383 10.7784 18.9977 11.0576 18.7193C11.0576 18.7193 11.1274 18.6496 11.1972 18.6496C13.2914 18.7193 15.4555 18.5104 17.5497 18.1623C19.1553 17.8141 21.1798 15.8647 21.5288 14.333C22.1571 11.3391 22.1571 8.27568 21.5288 5.28186C21.1099 3.81976 19.0855 1.8703 17.4799 1.52218ZM17.5497 14.6115C17.2007 15.3077 16.7819 15.8647 16.0838 16.2128C15.8743 16.2824 15.6649 16.352 15.4555 16.4217C15.1763 16.352 14.9668 16.2824 14.7574 16.2128C12.5236 15.3077 10.4293 14.0545 8.75393 12.2442C7.84642 11.1999 7.07853 10.0163 6.45026 8.76305C6.17103 8.13644 5.8918 7.57945 5.68237 6.95283C5.47295 6.39584 5.82199 5.83885 6.17103 5.42111C6.52007 5.00337 6.93892 4.72487 7.42757 4.516C7.77661 4.30713 8.12566 4.44638 8.40489 4.72487C8.96335 5.42111 9.52181 6.11735 9.94066 6.88321C10.2199 7.37057 10.1501 7.92757 9.66143 8.27568C9.52181 8.34531 9.452 8.41493 9.31239 8.55418C9.24258 8.6238 9.10296 8.69343 9.03316 8.83267C8.89354 9.04154 8.89354 9.25042 8.96335 9.45929C9.52181 11.0606 10.5689 12.3139 12.1745 13.0101C12.4537 13.1493 12.6632 13.219 13.0122 13.219C13.5009 13.1494 13.7103 12.5924 14.0593 12.3139C14.4084 12.0354 14.8272 12.0354 15.2461 12.2442C15.5951 12.4531 15.9441 12.7316 16.363 13.0101C16.712 13.2886 17.0611 13.4975 17.4101 13.776C17.6195 13.9152 17.6894 14.2633 17.5497 14.6115ZM14.6178 9.38967C14.4782 9.38967 14.548 9.38967 14.6178 9.38967C14.3386 9.38967 14.2688 9.25042 14.199 9.04155C14.199 8.9023 14.199 8.69343 14.1291 8.55418C14.0593 8.27569 13.9197 7.99719 13.6405 7.78832C13.5009 7.71869 13.3613 7.64907 13.2216 7.57945C13.0122 7.50982 12.8726 7.50982 12.6632 7.50982C12.4538 7.4402 12.3839 7.30095 12.3839 7.09208C12.3839 6.95283 12.5934 6.81359 12.733 6.81359C13.8499 6.88321 14.6876 7.50982 14.8272 8.83267C14.8272 8.9023 14.8272 9.04155 14.8272 9.11117C14.8272 9.25042 14.7574 9.38967 14.6178 9.38967ZM13.9197 6.32622C13.5707 6.18697 13.2216 6.04772 12.8028 5.9781C12.6632 5.9781 12.4538 5.90848 12.3141 5.90848C12.1047 5.90848 11.9651 5.76923 12.0349 5.56036C12.0349 5.35149 12.1745 5.21224 12.3839 5.28186C13.082 5.35149 13.7103 5.49073 14.3386 5.76923C15.5951 6.39584 16.2932 7.4402 16.5026 8.83267C16.5026 8.9023 16.5026 8.97192 16.5026 9.04155C16.5026 9.18079 16.5026 9.32004 16.5026 9.52891C16.5026 9.59854 16.5026 9.66816 16.5026 9.73779C16.4328 10.0163 15.9442 10.0859 15.8743 9.73779C15.8743 9.66816 15.8045 9.52891 15.8045 9.45929C15.8045 8.83267 15.6649 8.20606 15.3857 7.64907C14.9668 7.02246 14.4782 6.60471 13.9197 6.32622ZM17.6894 10.5036C17.4799 10.5036 17.3403 10.2948 17.3403 10.0859C17.3403 9.66816 17.2705 9.25042 17.2007 8.83267C16.9215 6.60471 15.1065 4.7945 12.9424 4.44638C12.5934 4.37675 12.2443 4.37675 11.9651 4.30713C11.7557 4.30713 11.4764 4.30713 11.4066 4.02863C11.3368 3.81976 11.5462 3.61089 11.7557 3.61089C11.8255 3.61089 11.8953 3.61089 11.8953 3.61089C14.7574 3.68052 12.0349 3.61089 11.8953 3.61089C14.8272 3.68052 17.2705 5.62998 17.7592 8.55418C17.829 9.04155 17.8988 9.52891 17.8988 10.0859C18.0384 10.2948 17.8988 10.5036 17.6894 10.5036Z"/>
</svg>
