<svg width="24" height="24" viewBox="0 0 24 24" xmlns="http://www.w3.org/2000/svg">
<path d="M23.7771 17.5616C23.7771 17.4658 23.6816 17.4658 23.6816 17.3699C23.2996 16.6027 22.4402 15.6438 21.2943 14.589C20.7214 14.1096 20.4349 13.726 20.2439 13.5342C19.9575 13.1507 19.9575 12.863 20.053 12.4795C20.1485 12.1918 20.5304 11.7123 21.1988 10.8493C21.5808 10.3699 21.7718 10.0822 22.0582 9.79452C23.4906 7.87671 24.159 6.63013 23.968 6.05479L23.8726 5.9589C23.7771 5.86301 23.6816 5.76713 23.4906 5.76713C23.2996 5.67124 23.0131 5.67124 22.7267 5.76713H19.0981C19.0026 5.76713 19.0026 5.76713 18.8116 5.76713C18.7161 5.76713 18.6206 5.76713 18.6206 5.76713H18.5251H18.4296L18.3341 5.86301C18.2386 5.9589 18.2386 5.9589 18.2386 6.05479C17.8567 7.10958 17.3792 7.9726 16.9018 8.9315C16.6153 9.41095 16.3288 9.89041 16.0424 10.274C15.7559 10.6575 15.5649 10.9452 15.3739 11.137C15.1829 11.3288 14.992 11.4247 14.8965 11.6164C14.801 11.7123 14.61 11.8082 14.61 11.7123C14.5145 11.7123 14.419 11.7123 14.419 11.6164C14.3235 11.5205 14.228 11.4247 14.1326 11.3288C14.0371 11.2329 14.0371 11.0411 13.9416 10.8493C13.9416 10.6575 13.9416 10.4657 13.9416 10.3699C13.9416 10.274 13.9416 9.9863 13.9416 9.79452C13.9416 9.50685 13.9416 9.31507 13.9416 9.21917C13.9416 8.9315 13.9416 8.54795 13.9416 8.16439C13.9416 7.78083 13.9416 7.49315 13.9416 7.30137C13.9416 7.10958 13.9416 6.82192 13.9416 6.63014C13.9416 6.34246 13.9416 6.15068 13.9416 6.05479C13.9416 5.9589 13.8461 5.76712 13.8461 5.67123C13.7506 5.57534 13.6551 5.47945 13.5596 5.38356C13.4641 5.28767 13.2731 5.28767 13.1777 5.19178C12.7002 5.09589 12.1273 5 11.4588 5C9.931 5 8.8806 5.09589 8.49864 5.28767C8.30766 5.38356 8.11668 5.47945 8.02119 5.67123C7.83021 5.86301 7.8302 5.9589 7.92569 5.9589C8.40314 6.0548 8.78511 6.24657 8.97609 6.53424L9.07159 6.72603C9.16708 6.82192 9.16706 7.01369 9.26255 7.30137C9.35804 7.58904 9.35804 7.87671 9.35804 8.26027C9.35804 8.83561 9.35804 9.41096 9.35804 9.79452C9.35804 10.274 9.26255 10.5616 9.26255 10.8493C9.26255 11.137 9.16708 11.3288 9.07159 11.4247C8.9761 11.6164 8.97608 11.7123 8.88059 11.7123C8.88059 11.7123 8.88059 11.8082 8.7851 11.8082C8.68961 11.8082 8.59412 11.9041 8.40314 11.9041C8.30765 11.9041 8.11668 11.8082 8.02119 11.7123C7.83021 11.6164 7.63923 11.4247 7.54374 11.2329C7.35276 11.0411 7.16177 10.7534 6.97079 10.3699C6.77981 9.9863 6.49333 9.60274 6.30235 9.0274L6.11138 8.64384C6.01589 8.45206 5.82491 8.06849 5.63393 7.58904C5.44295 7.10959 5.25197 6.72603 5.06098 6.24658C4.96549 6.0548 4.87002 5.9589 4.77453 5.86301H4.67903C4.67903 5.86301 4.58353 5.76713 4.48804 5.76713C4.39255 5.76713 4.29707 5.67123 4.20158 5.67123H0.763925C0.381964 5.67123 0.190986 5.76712 0.0954961 5.86301L0 5.9589C0 5.9589 0 6.05479 0 6.15068C0 6.24657 5.82684e-06 6.34246 0.0954961 6.53424C0.572947 7.68492 1.14589 8.83562 1.71883 9.9863C2.29177 11.0411 2.86472 12 3.24668 12.6712C3.72413 13.3425 4.10608 14.0137 4.58353 14.589C5.06098 15.1644 5.34745 15.5479 5.44294 15.7397C5.63392 15.9315 5.7294 16.0274 5.82489 16.1233L6.11138 16.411C6.30236 16.6027 6.58883 16.8904 6.97079 17.1781C7.35275 17.4658 7.8302 17.7534 8.30765 18.0411C8.7851 18.3288 9.35805 18.5206 9.93099 18.7123C10.5994 18.9041 11.1724 19 11.7453 18.9041H13.1777C13.4641 18.9041 13.6551 18.8082 13.8461 18.6164L13.9416 18.5205C13.9416 18.4247 14.0371 18.4247 14.0371 18.3288C14.0371 18.2329 14.0371 18.137 14.0371 17.9452C14.0371 17.5617 14.0371 17.274 14.1326 16.9863C14.228 16.6986 14.2281 16.5069 14.3235 16.3151C14.419 16.1233 14.5145 16.0274 14.61 15.9315C14.7055 15.8356 14.801 15.7397 14.801 15.7397H14.8965C15.0874 15.6438 15.3739 15.7397 15.5649 15.9315C15.8514 16.1233 16.1378 16.411 16.3288 16.6986C16.5198 16.9863 16.8063 17.274 17.1883 17.6575C17.5702 18.0411 17.8567 18.3288 18.0477 18.4247L18.3341 18.6164C18.5251 18.7123 18.7161 18.8082 19.0026 18.9041C19.289 19 19.48 19 19.671 19L22.9177 18.9041C23.2041 18.9041 23.4906 18.8082 23.6816 18.7123C23.8726 18.6164 23.968 18.5205 23.968 18.3288C23.968 18.2329 23.968 18.0411 23.968 17.9452C23.7771 17.7534 23.7771 17.6575 23.7771 17.5616Z"/>
</svg>
