<svg width="24" height="24" viewBox="0 0 24 24" xmlns="http://www.w3.org/2000/svg">
<path fill-rule="evenodd" clip-rule="evenodd" d="M22.9399 7.46808C22.8884 6.29913 22.6993 5.49549 22.4285 4.79913C22.1492 4.05995 21.7194 3.39817 21.1563 2.84802C20.6062 2.28932 19.9401 1.85518 19.2094 1.58019C18.509 1.3094 17.7096 1.12037 16.5406 1.06883C15.363 1.01293 14.9891 1 12.0022 1C9.01526 1 8.64139 1.01293 7.46808 1.06447C6.29913 1.11601 5.49549 1.30521 4.79929 1.57583C4.05995 1.85518 3.39817 2.28495 2.84802 2.84802C2.28932 3.39817 1.85535 4.06431 1.58019 4.79493C1.3094 5.49549 1.12037 6.29477 1.06883 7.46372C1.01293 8.6414 1 9.01526 1 12.0022C1 14.9891 1.01293 15.363 1.06447 16.5363C1.11601 17.7052 1.30521 18.5089 1.576 19.2052C1.85535 19.9444 2.28932 20.6062 2.84802 21.1563C3.39817 21.7151 4.06431 22.1492 4.79493 22.4242C5.49549 22.695 6.29477 22.884 7.46388 22.9355C8.63703 22.9872 9.01106 23 11.998 23C14.9849 23 15.3588 22.9872 16.5321 22.9355C17.701 22.884 18.5047 22.695 19.2009 22.4242C20.6794 21.8525 21.8483 20.6836 22.42 19.2052C22.6906 18.5047 22.8798 17.7052 22.9313 16.5363C22.9829 15.363 22.9958 14.9891 22.9958 12.0022C22.9958 9.01526 22.9914 8.6414 22.9399 7.46808ZM20.9587 16.4503C20.9114 17.5248 20.7309 18.105 20.5805 18.4918C20.2108 19.4502 19.4502 20.2108 18.4918 20.5805C18.105 20.7309 17.5206 20.9114 16.4503 20.9586C15.2899 21.0103 14.9419 21.0231 12.0065 21.0231C9.07117 21.0231 8.71879 21.0103 7.5626 20.9586C6.48816 20.9114 5.90797 20.7309 5.52118 20.5805C5.04423 20.4042 4.61009 20.1249 4.25771 19.7596C3.8924 19.4028 3.61305 18.9731 3.43678 18.4961C3.28636 18.1093 3.10589 17.5248 3.05871 16.4547C3.00701 15.2943 2.99425 14.9461 2.99425 12.0107C2.99425 9.07537 3.00701 8.72299 3.05871 7.56696C3.10589 6.49253 3.28636 5.91234 3.43678 5.52554C3.61305 5.04843 3.8924 4.61446 4.26208 4.26191C4.61865 3.8966 5.04843 3.61725 5.52554 3.44114C5.91234 3.29072 6.49689 3.11025 7.56696 3.06291C8.72735 3.01137 9.07553 2.99844 12.0107 2.99844C14.9505 2.99844 15.2985 3.01137 16.4547 3.06291C17.5291 3.11025 18.1093 3.29072 18.4961 3.44114C18.9731 3.61725 19.4072 3.8966 19.7596 4.26191C20.1249 4.61865 20.4042 5.04843 20.5805 5.52554C20.7309 5.91234 20.9114 6.49673 20.9587 7.56696C21.0103 8.72735 21.0232 9.07537 21.0232 12.0107C21.0232 14.9461 21.0103 15.2899 20.9587 16.4503ZM12.0022 6.35067C8.88213 6.35067 6.35066 8.88196 6.35066 12.0022C6.35066 15.1224 8.88213 17.6537 12.0022 17.6537C15.1224 17.6537 17.6537 15.1224 17.6537 12.0022C17.6537 8.88196 15.1224 6.35067 12.0022 6.35067ZM12.0022 15.6682C9.97805 15.6682 8.33618 14.0265 8.33618 12.0022C8.33618 9.97788 9.97805 8.33618 12.0022 8.33618C14.0265 8.33618 15.6682 9.97788 15.6682 12.0022C15.6682 14.0265 14.0265 15.6682 12.0022 15.6682ZM17.8772 7.44659C18.6059 7.44659 19.1967 6.85582 19.1967 6.12722C19.1967 5.39846 18.6059 4.80785 17.8772 4.80785C17.1486 4.80785 16.5578 5.39846 16.5578 6.12722C16.5578 6.85582 17.1486 7.44659 17.8772 7.44659Z"/>
</svg>
