<svg width="48" height="48" viewBox="0 0 48 48" xmlns="http://www.w3.org/2000/svg">
<path d="M43.9173 19.1049C43.7189 18.4648 43.1943 18.0011 42.5605 17.9041L30.7733 16.0986L25.4976 4.90193C24.9293 3.69936 23.0514 3.69936 22.4832 4.90193L17.2075 16.1002L5.43881 17.904C4.80498 18.001 4.27873 18.4665 4.08201 19.1048C3.88529 19.7431 4.04842 20.4431 4.5074 20.9121L13.0212 29.6279L11.0189 41.9406C10.9096 42.6018 11.1685 43.27 11.688 43.665C11.9805 43.8872 12.3269 44 12.6749 44C12.9422 44 13.2112 43.933 13.4617 43.7955L23.9929 37.9856L34.5427 43.7972C35.1092 44.1075 35.7969 44.0599 36.313 43.6614C36.8308 43.2665 37.0881 42.5982 36.9804 41.9352L34.9629 29.6261L43.4918 20.9103C43.9509 20.4431 44.1156 19.7449 43.9173 19.1049Z"/>
</svg>
