<svg width="48" height="48" viewBox="0 0 48 48" xmlns="http://www.w3.org/2000/svg">
<path d="M43.9173 19.1049C43.7189 18.4648 43.1943 18.0011 42.5605 17.9041L30.7733 16.0986L25.4976 4.90193C24.9293 3.69936 23.0514 3.69936 22.4832 4.90193L17.2075 16.1002L5.43881 17.904C4.80498 18.001 4.27873 18.4665 4.08201 19.1048C3.88529 19.7431 4.04842 20.4431 4.5074 20.9121L13.0212 29.6279L11.0189 41.9406C10.9096 42.6018 11.1685 43.27 11.688 43.665C11.9805 43.8872 12.3269 44 12.6749 44C12.9422 44 13.2112 43.933 13.4617 43.7955L23.9929 37.9856L34.5427 43.7972C35.1092 44.1075 35.7969 44.0599 36.313 43.6614C36.8308 43.2665 37.0881 42.5983 36.9804 41.9352L34.9629 29.6261L43.4918 20.9103C43.9509 20.4431 44.1156 19.7449 43.9173 19.1049ZM31.9788 27.75C31.5837 28.1556 31.4021 28.7392 31.4963 29.3122L33.0867 39.0154L24.7714 34.4327C24.5259 34.2988 24.2585 34.2317 23.9896 34.2317C23.7189 34.2317 23.4499 34.2988 23.2061 34.4345L14.9042 39.0137L16.4829 29.3088C16.577 28.7393 16.3954 28.1539 16.0004 27.7501L9.28716 20.8788L18.5659 19.4541C19.1123 19.373 19.5847 19.0116 19.8302 18.4931L23.9896 9.66639L28.1489 18.4914C28.3944 19.0098 28.8668 19.3712 29.4132 19.4542L38.7038 20.8789L31.9788 27.75Z"/>
</svg>
