<svg width="24" height="24" viewBox="0 0 24 24" xmlns="http://www.w3.org/2000/svg">
<path fill-rule="evenodd" clip-rule="evenodd" d="M23.8412 11.9346L22.4307 9.96932L22.4322 9.96851L20.1633 5.0867C20.0347 4.81043 19.7733 4.63614 19.4874 4.63614H16.2605V3.81816C16.2605 3.36623 15.922 3 15.5042 3H2.89919C2.48144 3 2.14291 3.36628 2.14291 3.81816C2.14291 4.27005 2.48149 4.63633 2.89919 4.63633H14.7479V10.3636C14.7479 10.8156 15.0865 11.1818 15.5042 11.1818H21.386L22.4874 12.7167V16.9364H21.062C20.7342 15.5126 19.5422 14.4546 18.1261 14.4546C16.71 14.4546 15.518 15.5127 15.1902 16.9364H10.7258C10.398 15.5127 9.20606 14.4546 7.78993 14.4546C6.3738 14.4546 5.18184 15.5127 4.85402 16.9364H2.89916C2.48141 16.9364 2.14288 17.3027 2.14288 17.7546C2.14288 18.2065 2.48146 18.5728 2.89916 18.5728H4.86702C5.21236 19.969 6.3919 21.0001 7.78993 21.0001C9.18793 21.0001 10.3675 19.969 10.7128 18.5728H15.2032C15.5486 19.969 16.7281 21.0001 18.1261 21.0001C19.5244 21.0001 20.7038 19.969 21.0491 18.5727H23.2437C23.6614 18.5727 24 18.2064 24 17.7546V12.4364C24 12.2548 23.944 12.0781 23.8412 11.9346ZM19.021 6.27252L20.5421 9.54547H16.2605V6.27252H19.021ZM7.78993 19.3638C6.95574 19.3638 6.27732 18.6298 6.27732 17.7274C6.27732 16.8249 6.95574 16.091 7.78993 16.091C8.62388 16.091 9.30254 16.8249 9.30254 17.7274C9.30254 18.6299 8.62411 19.3638 7.78993 19.3638ZM18.1261 19.3638C17.2919 19.3638 16.6135 18.6298 16.6135 17.7274C16.6135 16.8249 17.2919 16.091 18.1261 16.091C18.9603 16.091 19.6387 16.8249 19.6387 17.7274C19.6387 18.6299 18.9603 19.3638 18.1261 19.3638ZM1.99157 12.791H5.47059C5.88829 12.791 6.22687 13.1573 6.22682 13.6092C6.22682 14.0611 5.88829 14.4273 5.47054 14.4273H1.99157C1.57387 14.4273 1.23529 14.0611 1.23529 13.6092C1.23529 13.1573 1.57382 12.791 1.99157 12.791ZM7.21008 9.57257H0.756281C0.338578 9.57257 0 9.93885 0 10.3908C0 10.8427 0.338578 11.209 0.756281 11.209H7.21008C7.62783 11.209 7.96636 10.8427 7.96636 10.3908C7.96636 9.9389 7.62783 9.57257 7.21008 9.57257ZM1.99157 6.35468H8.44537C8.86312 6.35468 9.2017 6.72096 9.20165 7.17284C9.20165 7.62472 8.86312 7.991 8.44537 7.991H1.99157C1.57387 7.991 1.23529 7.62477 1.23529 7.17284C1.23529 6.72096 1.57382 6.35468 1.99157 6.35468Z"/>
</svg>
