<svg width="24" height="24" viewBox="0 0 24 24" xmlns="http://www.w3.org/2000/svg">
<path fill-rule="evenodd" clip-rule="evenodd" d="M22.8695 11.8621C22.8727 11.8674 22.8752 11.8717 22.8772 11.875C23.0409 12.1586 23.0409 12.5081 22.8772 12.7917C22.8752 12.795 22.8727 12.7993 22.8695 12.8045C22.6179 13.2268 18.7798 19.6667 12 19.6667C5.22021 19.6667 1.38212 13.2268 1.13046 12.8045C1.12735 12.7993 1.12479 12.795 1.12277 12.7917C0.959075 12.5081 0.959075 12.1586 1.12277 11.875C1.12479 11.8717 1.12735 11.8674 1.13046 11.8621C1.38213 11.4399 5.22022 5 12 5C18.7798 5 22.6179 11.4399 22.8695 11.8621ZM3.01054 12.3334C3.95438 13.7267 7.16165 17.8334 12 17.8334C16.8567 17.8334 20.0457 13.7267 20.9896 12.3334C20.0457 10.94 16.8476 6.83335 12 6.83335C7.15251 6.83335 3.92688 10.94 3.01054 12.3334ZM7.41801 12.3333C7.41801 9.80196 9.46939 7.74994 11.9998 7.74994C14.5303 7.74994 16.5817 9.80196 16.5817 12.3333C16.5817 14.8646 14.5303 16.9167 11.9998 16.9167C9.46934 16.9167 7.41801 14.8646 7.41801 12.3333ZM9.25075 12.3333C9.25075 13.8521 10.4816 15.0833 11.9998 15.0833C13.5181 15.0833 14.7489 13.8521 14.7489 12.3333C14.7489 10.8145 13.5181 9.5833 11.9998 9.5833C10.4816 9.5833 9.25075 10.8145 9.25075 12.3333Z"/>
</svg>
