<svg xmlns="http://www.w3.org/2000/svg" xmlns:xlink="http://www.w3.org/1999/xlink" width="512" height="13680" viewBox="0 0 512 13680"><svg viewBox="0 0 492 492" width="492" height="492" id="arrow-conner-left" y="0"><path d="M464.344 207.418l.768.168H135.888l103.496-103.724c5.068-5.064 7.848-11.924 7.848-19.124 0-7.2-2.78-14.012-7.848-19.088L223.28 49.538c-5.064-5.064-11.812-7.864-19.008-7.864-7.2 0-13.952 2.78-19.016 7.844L7.844 226.914C2.76 231.998-.02 238.77 0 245.974c-.02 7.244 2.76 14.02 7.844 19.096l177.412 177.412c5.064 5.06 11.812 7.844 19.016 7.844 7.196 0 13.944-2.788 19.008-7.844l16.104-16.112c5.068-5.056 7.848-11.808 7.848-19.008 0-7.196-2.78-13.592-7.848-18.652L134.72 284.406h329.992c14.828 0 27.288-12.78 27.288-27.6v-22.788c0-14.82-12.828-26.6-27.656-26.6z"></path></svg><svg viewBox="0 0 492.004 492.004" width="492.004" height="492.004" id="arrow-conner-right" y="492"><path d="M484.14 226.886L306.46 49.202c-5.072-5.072-11.832-7.856-19.04-7.856-7.216 0-13.972 2.788-19.044 7.856l-16.132 16.136c-5.068 5.064-7.86 11.828-7.86 19.04 0 7.208 2.792 14.2 7.86 19.264L355.9 207.526H26.58C11.732 207.526 0 219.15 0 234.002v22.812c0 14.852 11.732 27.648 26.58 27.648h330.496L252.248 388.926c-5.068 5.072-7.86 11.652-7.86 18.864 0 7.204 2.792 13.88 7.86 18.948l16.132 16.084c5.072 5.072 11.828 7.836 19.044 7.836 7.208 0 13.968-2.8 19.04-7.872l177.68-177.68c5.084-5.088 7.88-11.88 7.86-19.1.016-7.244-2.776-14.04-7.864-19.12z"></path></svg><svg viewBox="0 0 491.996 491.996" width="491.996" height="491.996" id="arrow-down" y="985"><path d="M484.132 124.986l-16.116-16.228c-5.072-5.068-11.82-7.86-19.032-7.86-7.208 0-13.964 2.792-19.036 7.86l-183.84 183.848L62.056 108.554c-5.064-5.068-11.82-7.856-19.028-7.856s-13.968 2.788-19.036 7.856l-16.12 16.128c-10.496 10.488-10.496 27.572 0 38.06l219.136 219.924c5.064 5.064 11.812 8.632 19.084 8.632h.084c7.212 0 13.96-3.572 19.024-8.632l218.932-219.328c5.072-5.064 7.856-12.016 7.864-19.224 0-7.212-2.792-14.068-7.864-19.128z"></path></svg><svg viewBox="0 0 492 492" width="492" height="492" id="arrow-left" y="1477"><path d="M198.608 246.104L382.664 62.04c5.068-5.056 7.856-11.816 7.856-19.024 0-7.212-2.788-13.968-7.856-19.032l-16.128-16.12C361.476 2.792 354.712 0 347.504 0s-13.964 2.792-19.028 7.864L109.328 227.008c-5.084 5.08-7.868 11.868-7.848 19.084-.02 7.248 2.76 14.028 7.848 19.112l218.944 218.932c5.064 5.072 11.82 7.864 19.032 7.864 7.208 0 13.964-2.792 19.032-7.864l16.124-16.12c10.492-10.492 10.492-27.572 0-38.06L198.608 246.104z"></path></svg><svg viewBox="0 0 492.004 492.004" width="492.004" height="492.004" id="arrow-right" y="1969"><path d="M382.678 226.804L163.73 7.86C158.666 2.792 151.906 0 144.698 0s-13.968 2.792-19.032 7.86l-16.124 16.12c-10.492 10.504-10.492 27.576 0 38.064L293.398 245.9l-184.06 184.06c-5.064 5.068-7.86 11.824-7.86 19.028 0 7.212 2.796 13.968 7.86 19.04l16.124 16.116c5.068 5.068 11.824 7.86 19.032 7.86s13.968-2.792 19.032-7.86L382.678 265c5.076-5.084 7.864-11.872 7.848-19.088.016-7.244-2.772-14.028-7.848-19.108z"></path></svg><svg viewBox="0 0 492.002 492.002" width="492.002" height="492.002" id="arrow-up" y="2462"><path d="M484.136 328.473L264.988 109.329c-5.064-5.064-11.816-7.844-19.172-7.844-7.208 0-13.964 2.78-19.02 7.844L7.852 328.265C2.788 333.333 0 340.089 0 347.297s2.784 13.968 7.852 19.032l16.124 16.124c5.064 5.064 11.824 7.86 19.032 7.86s13.964-2.796 19.032-7.86l183.852-183.852 184.056 184.064c5.064 5.06 11.82 7.852 19.032 7.852 7.208 0 13.96-2.792 19.028-7.852l16.128-16.132c10.488-10.492 10.488-27.568 0-38.06z"></path></svg><svg viewBox="0 0 477.867 477.867" width="477.867" height="477.867" id="calendar" y="2955"><path d="M426.667 51.2h-51.2V17.067C375.467 7.641 367.826 0 358.4 0s-17.067 7.641-17.067 17.067V51.2h-204.8V17.067C136.533 7.641 128.892 0 119.467 0S102.4 7.641 102.4 17.067V51.2H51.2C22.923 51.2 0 74.123 0 102.4v324.267c0 28.277 22.923 51.2 51.2 51.2h375.467c28.277 0 51.2-22.923 51.2-51.2V102.4c0-28.277-22.923-51.2-51.2-51.2zm17.066 375.467c0 9.426-7.641 17.067-17.067 17.067H51.2c-9.426 0-17.067-7.641-17.067-17.067V204.8h409.6v221.867zm0-256h-409.6V102.4c0-9.426 7.641-17.067 17.067-17.067h51.2v34.133c0 9.426 7.641 17.067 17.067 17.067s17.067-7.641 17.067-17.067V85.333h204.8v34.133c0 9.426 7.641 17.067 17.067 17.067s17.067-7.641 17.067-17.067V85.333h51.2c9.426 0 17.067 7.641 17.067 17.067v68.267z"></path><path d="M136.533 238.933H102.4c-9.426 0-17.067 7.641-17.067 17.067s7.641 17.067 17.067 17.067h34.133c9.426 0 17.067-7.641 17.067-17.067s-7.641-17.067-17.067-17.067zm119.467 0h-34.133c-9.426 0-17.067 7.641-17.067 17.067s7.641 17.067 17.067 17.067H256c9.426 0 17.067-7.641 17.067-17.067s-7.641-17.067-17.067-17.067zm119.467 0h-34.133c-9.426 0-17.067 7.641-17.067 17.067s7.641 17.067 17.067 17.067h34.133c9.426 0 17.067-7.641 17.067-17.067-.001-9.426-7.642-17.067-17.067-17.067zM136.533 307.2H102.4c-9.426 0-17.067 7.641-17.067 17.067s7.641 17.067 17.067 17.067h34.133c9.426 0 17.067-7.641 17.067-17.067s-7.641-17.067-17.067-17.067zm119.467 0h-34.133c-9.426 0-17.067 7.641-17.067 17.067s7.641 17.067 17.067 17.067H256c9.426 0 17.067-7.641 17.067-17.067S265.426 307.2 256 307.2zm119.467 0h-34.133c-9.426 0-17.067 7.641-17.067 17.067s7.641 17.067 17.067 17.067h34.133c9.426 0 17.067-7.641 17.067-17.067-.001-9.426-7.642-17.067-17.067-17.067zm-238.934 68.267H102.4c-9.426 0-17.067 7.641-17.067 17.067S92.974 409.6 102.4 409.6h34.133c9.426 0 17.067-7.641 17.067-17.067s-7.641-17.066-17.067-17.066zm119.467 0h-34.133c-9.426 0-17.067 7.641-17.067 17.067s7.641 17.067 17.067 17.067H256c9.426 0 17.067-7.641 17.067-17.067s-7.641-17.067-17.067-17.067zm119.467 0h-34.133c-9.426 0-17.067 7.641-17.067 17.067s7.641 17.067 17.067 17.067h34.133c9.426 0 17.067-7.641 17.067-17.067s-7.642-17.067-17.067-17.067z"></path></svg><svg viewBox="0 0 512 512" width="512" height="512" id="cancel" y="3433"><path d="M437.016 74.984c-99.979-99.979-262.075-99.979-362.033.002-99.978 99.978-99.978 262.073.004 362.031 99.954 99.978 262.05 99.978 362.029-.002 99.979-99.956 99.979-262.051 0-362.031zm-30.168 331.86c-83.318 83.318-218.396 83.318-301.691.004-83.318-83.299-83.318-218.377-.002-301.693 83.297-83.317 218.375-83.317 301.691 0s83.316 218.394.002 301.689z"></path><path d="M361.592 150.408c-8.331-8.331-21.839-8.331-30.17 0l-75.425 75.425-75.425-75.425c-8.331-8.331-21.839-8.331-30.17 0s-8.331 21.839 0 30.17l75.425 75.425L150.43 331.4c-8.331 8.331-8.331 21.839 0 30.17 8.331 8.331 21.839 8.331 30.17 0l75.397-75.397 75.419 75.419c8.331 8.331 21.839 8.331 30.17 0 8.331-8.331 8.331-21.839 0-30.17l-75.419-75.419 75.425-75.425c8.331-8.331 8.331-21.838 0-30.17z"></path></svg><svg width="33" height="23" viewBox="0 0 33 23" id="card" y="3945"><defs><path id="a" d="M468 1286.6v2.3h-30v-2.3c0-.85.67-1.54 1.5-1.54h27c.83 0 1.5.69 1.5 1.54zm-30 5.38h30v11.54c0 .85-.67 1.54-1.5 1.54h-27c-.83 0-1.5-.69-1.5-1.54zm10.12 8.46c0-.84-.67-1.53-1.5-1.53-.82 0-1.5.69-1.5 1.53 0-.84-.67-1.53-1.5-1.53-.82 0-1.5.69-1.5 1.53 0 .85.68 1.54 1.5 1.54.83 0 1.5-.69 1.5-1.54 0 .85.68 1.54 1.5 1.54.83 0 1.5-.69 1.5-1.54z"></path></defs><use xlink:href="#a" transform="translate(-436 -1284)"></use></svg><svg viewBox="0 0 512 512" width="512" height="512" id="cart" y="3968"><path d="M485.7 198.5c-10.7-13.4-25.3-20.8-41.1-20.8h-36.1C405.1 85.1 338 11 256 11S106.9 85.1 103.5 177.7H67.4c-15.8 0-30.4 7.4-41.1 20.8-13.5 16.8-18.4 40.2-13.3 62.7L56.3 452c6.5 28.8 28.9 49 54.4 49h290.5c25.5 0 47.9-20.1 54.4-49L499 261.2c5.1-22.5.2-45.9-13.3-62.7zM256 51.8c59.6 0 108.4 55.8 111.6 125.9H144.4c3.2-70 52-125.9 111.6-125.9zm203.2 200.3L415.9 443c-2.2 9.8-8.5 17.2-14.6 17.2H110.7c-6.1 0-12.4-7.4-14.6-17.2L52.8 252.1c-2.3-10.1-3.7-33.6 14.6-33.6h377.2c19.7 0 16.9 23.5 14.6 33.6z"></path><path d="M154.7 259.1c-11.3 0-20.4 9.1-20.4 20.4V407c0 11.3 9.1 20.4 20.4 20.4 11.3 0 20.4-9.1 20.4-20.4V279.5c.1-11.2-9.1-20.4-20.4-20.4zm98.9 0c-11.3 0-20.4 9.1-20.4 20.4V407c0 11.3 9.1 20.4 20.4 20.4 11.3 0 20.4-9.1 20.4-20.4V279.5c0-11.2-9.2-20.4-20.4-20.4zm98.8 0c-11.3 0-20.4 9.1-20.4 20.4V407c0 11.3 9.1 20.4 20.4 20.4 11.3 0 20.4-9.1 20.4-20.4V279.5c0-11.2-9.1-20.4-20.4-20.4z"></path></svg><svg width="24" height="24" viewBox="0 0 24 24" id="cat-daily" y="4480"><path d="M22.355 6.001h-5.827v-1.32C16.528 3.203 15.36 2 13.925 2h-3.85C8.64 2 7.472 3.203 7.472 4.681v1.32H1.645A.655.655 0 0 0 1 6.665V18.73C1 20.533 2.424 22 4.174 22h15.652C21.576 22 23 20.533 23 18.73V6.664A.655.655 0 0 0 22.355 6zm-8.893 8.666c0 .831-.656 1.507-1.462 1.507-.806 0-1.462-.676-1.462-1.507v-1.506h2.924v1.506zm.645-2.835H9.893a.655.655 0 0 0-.645.664v1.207C5.5 12.865 2.691 10.36 2.33 7.329h19.342c-.362 3.03-3.171 5.536-6.92 6.374v-1.206a.655.655 0 0 0-.644-.665zm-5.346-7.15c0-.747.59-1.354 1.314-1.354h3.85c.724 0 1.314.607 1.314 1.353v1.32H8.76v-1.32zm12.95 14.047c0 1.072-.846 1.943-1.885 1.943H4.174c-1.04 0-1.885-.872-1.885-1.943v-7.975a9.2 9.2 0 0 0 2.002 2.1c1.404 1.086 3.119 1.84 4.985 2.212.189 1.375 1.338 2.436 2.724 2.436 1.386 0 2.535-1.061 2.724-2.436 1.866-.372 3.58-1.126 4.985-2.211a9.2 9.2 0 0 0 2.002-2.101v7.975z"></path></svg><svg width="24" height="24" viewBox="0 0 24 24" id="chat" y="4504"><path d="M20.957 8.578H18.6V4.513C18.6 3.127 17.553 2 16.267 2H3.334C2.047 2 1 3.127 1 4.513v7.607c0 1.385 1.047 2.512 2.334 2.512h1.699v2.63c0 .32.179.609.453.73a.685.685 0 0 0 .281.061c.191 0 .38-.08.52-.232l2.045-2.202v1.383c0 1.213.917 2.2 2.044 2.2h5.686l2.384 2.566a.708.708 0 0 0 .52.232c.095 0 .19-.02.28-.06a.793.793 0 0 0 .454-.73V19.2h1.257C22.083 19.2 23 18.214 23 17v-6.223c0-1.213-.917-2.2-2.043-2.2zm-15.19 4.473H3.334c-.477 0-.865-.418-.865-.931V4.513c0-.514.388-.932.865-.932h12.932c.477 0 .866.418.866.932v7.607c0 .513-.389.931-.866.931H8.945a.71.71 0 0 0-.52.232l-1.923 2.07v-1.511c0-.437-.33-.79-.735-.79zm15.764 3.95c0 .342-.258.62-.574.62h-1.991c-.406 0-.735.353-.735.79v.89l-1.346-1.45a.709.709 0 0 0-.519-.23h-5.99c-.317 0-.575-.278-.575-.62v-2.369h6.465c1.287 0 2.335-1.127 2.335-2.512v-1.96h2.356c.316 0 .574.277.574.618v6.224z"></path></svg><svg viewBox="0 0 492 492" width="492" height="492" id="checked" y="4528"><path d="M484.128 104.478l-16.116-16.116c-5.064-5.068-11.816-7.856-19.024-7.856s-13.964 2.788-19.028 7.856L203.508 314.81 62.024 173.322c-5.064-5.06-11.82-7.852-19.028-7.852-7.204 0-13.956 2.792-19.024 7.852l-16.12 16.112C2.784 194.51 0 201.27 0 208.47c0 7.204 2.784 13.96 7.852 19.028l159.744 159.736c.212.3.436.58.696.836l16.12 15.852c5.064 5.048 11.82 7.572 19.084 7.572h.084c7.212 0 13.968-2.524 19.024-7.572l16.124-15.992c.26-.256.48-.468.612-.684l244.784-244.76c10.5-10.476 10.5-27.52.004-38.008z"></path></svg><svg height="512" viewBox="0 0 512 512" width="512" id="clip" y="5020"><path d="M226 512c-49.626 0-90-40.374-90-90V120C136 53.832 189.832 0 256 0s120 53.832 120 120v302h-30V120c0-49.626-40.374-90-90-90s-90 40.374-90 90v302c0 33.084 26.916 60 60 60s60-26.916 60-60V180c0-16.542-13.458-30-30-30s-30 13.458-30 30v242h-30V180c0-33.084 26.916-60 60-60s60 26.916 60 60v242c0 49.626-40.374 90-90 90z"></path></svg><svg viewBox="0 0 512 512" width="512" height="512" id="clock" y="5532"><path d="M256 0C114.845 0 0 114.839 0 256s114.845 256 256 256c141.161 0 256-114.839 256-256S397.155 0 256 0zm0 474.628C135.45 474.628 37.372 376.55 37.372 256S135.45 37.372 256 37.372s218.628 98.077 218.628 218.622c0 120.556-98.078 218.634-218.628 218.634z"></path><path d="M343.202 256h-80.973V143.883c0-10.321-8.365-18.686-18.686-18.686s-18.686 8.365-18.686 18.686v130.803c0 10.321 8.365 18.686 18.686 18.686h99.659c10.321 0 18.686-8.365 18.686-18.686S353.523 256 343.202 256z"></path></svg><svg viewBox="0 0 492 492" width="492" height="492" id="close" y="6044"><path d="M300.188 246L484.14 62.04c5.06-5.064 7.852-11.82 7.86-19.024 0-7.208-2.792-13.972-7.86-19.028L468.02 7.872C462.952 2.796 456.196.016 448.984.016c-7.2 0-13.956 2.78-19.024 7.856L246.008 191.82 62.048 7.872C56.988 2.796 50.228.016 43.02.016c-7.2 0-13.96 2.78-19.02 7.856L7.872 23.988c-10.496 10.496-10.496 27.568 0 38.052L191.828 246 7.872 429.952C2.808 435.024.02 441.78.02 448.984c0 7.204 2.788 13.96 7.852 19.028l16.124 16.116c5.06 5.072 11.824 7.856 19.02 7.856 7.208 0 13.968-2.784 19.028-7.856l183.96-183.952 183.952 183.952c5.068 5.072 11.824 7.856 19.024 7.856h.008c7.204 0 13.96-2.784 19.028-7.856l16.12-16.116c5.06-5.064 7.852-11.824 7.852-19.028 0-7.204-2.792-13.96-7.852-19.028L300.188 246z"></path></svg><svg width="21" height="24" viewBox="0 0 21 24" id="copy" y="6536"><path d="M13.204 24H3.898C1.748 24 0 22.318 0 20.25V7.547c0-2.068 1.749-3.75 3.898-3.75h9.306c2.15 0 3.898 1.682 3.898 3.75V20.25c0 2.068-1.748 3.75-3.898 3.75zM3.898 5.672c-1.075 0-1.949.841-1.949 1.875V20.25c0 1.034.874 1.875 1.949 1.875h9.306c1.075 0 1.95-.841 1.95-1.875V7.547c0-1.034-.875-1.875-1.95-1.875H3.898zM21 17.906V3.75C21 1.682 19.252 0 17.102 0H6.285c-.538 0-.974.42-.974.938 0 .517.436.937.974.937h10.817c1.075 0 1.949.841 1.949 1.875v14.156c0 .518.436.938.975.938.538 0 .974-.42.974-.938z"></path></svg><svg width="18" height="21" viewBox="0 0 18 21" id="delete" y="6560"><g data-name="Сгруппировать 4488"><path data-name="Контур 11090" d="M16 7H2a1 1 0 0 0-1 1v9a4 4 0 0 0 4 4h8a4 4 0 0 0 4-4V8a1 1 0 0 0-1-1zm-1 10a2 2 0 0 1-2 2H5a2 2 0 0 1-2-2V9h12z"></path><path data-name="Контур 11094" d="M17 3h-4v-.714A2.288 2.288 0 0 0 10.714 0H7.286A2.288 2.288 0 0 0 5 2.286V3H1a1 1 0 0 0 0 2h16a1 1 0 0 0 0-2zM7 3v-.714A.29.29 0 0 1 7.286 2h3.428a.29.29 0 0 1 .286.286V3z"></path></g></svg><svg viewBox="0 0 512 512" width="512" height="512" id="diskette" y="6581"><path d="M438.284 0H60C26.916 0 0 26.916 0 60v392c0 33.084 26.916 60 60 60h392c33.084 0 60-26.916 60-60V73.716L438.284 0zM120 40h230v118H120V40zm272 432H120V314h272v158zm80-20c0 11.028-8.972 20-20 20h-20V274H80v198H60c-11.028 0-20-8.972-20-20V60c0-11.028 8.972-20 20-20h20v158h310V40h31.716L472 90.284V452z"></path><path d="M274 59h40v79h-40z"></path></svg><svg height="512" viewBox="0 0 512 512" width="512" id="download" y="7093"><path d="M239.029 384.97a24 24 0 0 0 33.942 0l90.509-90.509a24 24 0 0 0 0-33.941 24 24 0 0 0-33.941 0L280 310.059V48a24 24 0 0 0-48 0v262.059l-49.539-49.539a24 24 0 0 0-33.941 0 24 24 0 0 0 0 33.941z"></path><path d="M464 232a24 24 0 0 0-24 24v184H72V256a24 24 0 0 0-48 0v192a40 40 0 0 0 40 40h384a40 40 0 0 0 40-40V256a24 24 0 0 0-24-24z"></path></svg><svg width="24" height="24" viewBox="0 0 24 24" id="edit" y="7605"><path fill-rule="evenodd" clip-rule="evenodd" d="M19.177 2a3.95 3.95 0 0 1 2.682 1.1 3.706 3.706 0 0 1 .001 5.348l-6.897 6.681a5.414 5.414 0 0 1-3.782 1.515H8.896c-.564 0-1.02-.441-1.02-.988v-2.213c0-1.382.555-2.682 1.563-3.662l6.906-6.69A3.932 3.932 0 0 1 19.177 2zm-7.996 12.668c.883 0 1.715-.333 2.34-.937l4.552-4.409-2.638-2.555-4.553 4.41a3.142 3.142 0 0 0-.966 2.266v1.225h1.265zm8.335-6.743l.9-.873a1.77 1.77 0 0 0 0-2.555 1.91 1.91 0 0 0-2.637 0l-.901.873 2.638 2.555zm-2.214 8.007c0-.547.456-.988 1.02-.988.564 0 1.02.441 1.02.988v3.104c0 1.635-1.373 2.964-3.06 2.964H5.06C3.373 22 2 20.67 2 19.036V6.19c0-1.635 1.373-2.965 3.06-2.965h5.927c.565 0 1.02.442 1.02.988 0 .547-.455.989-1.02.989H5.06c-.563 0-1.02.442-1.02.988v12.846c0 .545.457.988 1.02.988h11.222c.563 0 1.02-.443 1.02-.988v-3.104z"></path></svg><svg width="24" height="24" viewBox="0 0 24 24" id="exit" y="7629"><path fill-rule="evenodd" clip-rule="evenodd" d="M15.333 14.5a.833.833 0 0 1 1.667 0v5c0 .46-.373.833-.834.833H12v.833c0 .526-.481.92-.997.817L2.67 20.317A.833.833 0 0 1 2 19.5V2.865a.892.892 0 0 1 .009-.149l.001-.009a.85.85 0 0 1 .011-.06l.002-.006a.798.798 0 0 1 .81-.64h13.334a.832.832 0 0 1 .833.832v5a.833.833 0 0 1-1.667 0V3.667H8.511l2.895.868c.353.106.594.43.594.798v13.333h3.333V14.5zM3.667 18.817l6.666 1.333V5.954l-6.666-2v14.863zm18.158-7.143l-.015.02a.827.827 0 0 1-.055.06v.001l-2.5 2.5a.833.833 0 0 1-1.179-1.178l1.077-1.078H14.5a.833.833 0 1 1 0-1.666h4.654l-1.077-1.078a.833.833 0 0 1 1.178-1.178l2.5 2.5.056.06.015.02a.366.366 0 0 0 .014.02.529.529 0 0 1 .02.027l.016.026.005.01.006.01.014.023a.497.497 0 0 1 .018.038l.017.036.01.027.004.01c0 .004.002.007.003.01l.01.03.008.028.002.01.003.01a.53.53 0 0 1 .007.031l.007.044.005.037a.837.837 0 0 1 0 .164l-.003.024-.002.013-.002.01a.533.533 0 0 1-.005.034l-.007.03-.003.011-.002.01a.458.458 0 0 1-.008.028l-.01.03-.003.01-.014.037a.57.57 0 0 1-.021.046.484.484 0 0 1-.014.028l-.014.024-.006.01a1.104 1.104 0 0 0-.005.009l-.017.027-.019.026-.007.01-.007.01z"></path></svg><svg width="24" height="24" viewBox="0 0 24 24" id="filter" y="7653"><path fill-rule="evenodd" clip-rule="evenodd" d="M21.167 4.174h-2.22C18.587 2.92 17.484 2 16.168 2c-1.317 0-2.42.92-2.781 2.174H2.833c-.46 0-.833.39-.833.87s.373.869.833.869h10.553c.362 1.253 1.464 2.174 2.78 2.174 1.317 0 2.42-.92 2.782-2.174h2.219c.46 0 .833-.39.833-.87s-.372-.87-.833-.87zm-5 2.174c-.69 0-1.25-.585-1.25-1.305 0-.719.56-1.304 1.25-1.304.689 0 1.25.585 1.25 1.304 0 .72-.561 1.305-1.25 1.305zm5 11.739h-2.22c-.36-1.253-1.464-2.174-2.78-2.174-1.317 0-2.42.92-2.781 2.174H2.833c-.46 0-.833.39-.833.87s.373.87.833.87h10.553c.36 1.252 1.464 2.173 2.78 2.173 1.317 0 2.42-.92 2.782-2.174h2.219c.46 0 .833-.39.833-.87s-.372-.87-.833-.87zm-5 2.174c-.69 0-1.25-.585-1.25-1.305 0-.719.56-1.304 1.25-1.304.689 0 1.25.585 1.25 1.304 0 .72-.561 1.305-1.25 1.305zm-5.553-9.13h10.553c.46 0 .833.389.833.869s-.372.87-.833.87H10.614c-.362 1.253-1.464 2.173-2.78 2.173-1.317 0-2.42-.92-2.781-2.173h-2.22c-.46 0-.833-.39-.833-.87s.373-.87.833-.87h2.22c.361-1.253 1.464-2.174 2.78-2.174 1.317 0 2.42.921 2.781 2.174zM6.584 12c0 .719.56 1.304 1.25 1.304.689 0 1.25-.585 1.25-1.304 0-.72-.561-1.304-1.25-1.304-.69 0-1.25.585-1.25 1.304z"></path></svg><svg viewBox="0 0 477.846 477.846" width="477.846" height="477.846" id="home" y="7677"><path d="M472.847 226.846l-34.116-34.116L250.998 4.997c-6.664-6.663-17.468-6.663-24.132 0L39.132 192.73 4.999 226.864c-6.548 6.78-6.361 17.584.419 24.132 6.614 6.388 17.099 6.388 23.713 0l4.983-5.018v214.801c0 9.426 7.641 17.067 17.067 17.067h375.467c9.426 0 17.067-7.641 17.067-17.067V245.978l5 5.001c6.78 6.548 17.584 6.36 24.132-.419 6.388-6.614 6.388-17.1 0-23.714zM290.115 443.713h-102.4V307.179h102.4v136.534zm119.466 0h-85.333v-153.6c0-9.426-7.641-17.067-17.067-17.067H170.648c-9.426 0-17.067 7.641-17.067 17.067v153.6H68.248V211.845L238.914 41.178l170.667 170.667v231.868z"></path></svg><svg viewBox="0 0 330 330" width="330" height="330" id="info" y="8155"><path d="M165 0C74.019 0 0 74.02 0 165.001 0 255.982 74.019 330 165 330s165-74.018 165-164.999S255.981 0 165 0zm0 300c-74.44 0-135-60.56-135-134.999S90.56 30 165 30s135 60.562 135 135.001C300 239.44 239.439 300 165 300z"></path><path d="M164.998 70c-11.026 0-19.996 8.976-19.996 20.009 0 11.023 8.97 19.991 19.996 19.991 11.026 0 19.996-8.968 19.996-19.991 0-11.033-8.97-20.009-19.996-20.009zm.002 70c-8.284 0-15 6.716-15 15v90c0 8.284 6.716 15 15 15 8.284 0 15-6.716 15-15v-90c0-8.284-6.716-15-15-15z"></path></svg><svg width="24" height="24" viewBox="0 0 24 24" id="like" y="8485"><path d="M22.985 8.35a2.505 2.505 0 0 0-.02-.174C22.659 4.73 20.102 2 16.784 2c-1.923 0-3.68.9-4.83 2.359C10.829 2.89 9.139 2 7.227 2 3.92 2 1.369 4.71 1.04 8.196c-.006.04-.012.09-.018.148-.056.563-.01 1.31.207 2.219.461 1.931 1.54 3.69 3.06 5.054l7.08 6.157c.344.3.86.301 1.207.003l7.131-6.147c1.681-1.73 2.68-3.288 3.077-5.081.198-.901.245-1.642.2-2.199zm-1.992 1.812c-.311 1.41-1.14 2.702-2.55 4.157l-6.466 5.57-6.468-5.624c-1.24-1.113-2.122-2.552-2.496-4.119-.17-.711-.204-1.257-.163-1.663l.013-.091c.235-2.625 2.066-4.58 4.364-4.58 1.71 0 3.166 1.033 3.873 2.69.315.739 1.373.739 1.689 0 .693-1.624 2.251-2.69 3.994-2.69 2.297 0 4.128 1.955 4.364 4.58.006.053.008.068.01.1.03.383-.004.947-.164 1.67z"></path></svg><svg width="18.393" height="23.039" viewBox="0 0 18.393 23.039" id="location" y="8509"><g data-name="Group 3524"><path data-name="Path 10785" d="M9.191 12.245H9.2a3.8 3.8 0 0 0 0-7.6 3.8 3.8 0 0 0-3.8 3.8v.019a3.79 3.79 0 0 0 3.791 3.781zm.009-6a2.2 2.2 0 1 1-2.2 2.2 2.2 2.2 0 0 1 2.2-2.2z"></path><path data-name="Path 10786" d="M8.679 22.855a.821.821 0 0 0 1.035 0c.111-.083 8.679-7.4 8.679-13.909A9.2 9.2 0 0 0 0 8.958c0 6.303 8.3 13.57 8.679 13.897zM3.824 3.574A7.6 7.6 0 0 1 16.8 8.945c0 4.321-4.588 9.353-7.324 11.967a.4.4 0 0 1-.552 0C6.187 18.3 1.6 13.268 1.6 8.945a7.542 7.542 0 0 1 2.224-5.371z"></path></g></svg><svg width="24" height="24" viewBox="0 0 24 24" id="lock" y="8533"><path fill-rule="evenodd" clip-rule="evenodd" d="M18.3 7.833v.834c1.489 0 2.7 1.121 2.7 2.5V19.5c0 1.378-1.211 2.5-2.7 2.5H5.7C4.211 22 3 20.878 3 19.5v-8.333c0-1.379 1.211-2.5 2.7-2.5v-.834C5.7 4.617 8.526 2 12 2c3.474 0 6.3 2.617 6.3 5.833zM12 3.667c-2.481 0-4.5 1.869-4.5 4.166v.834h9v-.834c0-2.297-2.019-4.166-4.5-4.166zm6.3 16.666c.496 0 .9-.373.9-.833v-8.333c0-.46-.404-.834-.9-.834H5.7c-.496 0-.9.374-.9.834V19.5c0 .46.404.833.9.833h12.6zm-9-6.25c0-1.378 1.211-2.5 2.7-2.5s2.7 1.122 2.7 2.5c0 1.085-.755 2.002-1.8 2.347v1.403c0 .461-.403.834-.9.834s-.9-.373-.9-.834V16.43c-1.045-.345-1.8-1.262-1.8-2.347zm1.8 0c0 .46.404.834.9.834s.9-.374.9-.834c0-.46-.404-.833-.9-.833s-.9.373-.9.833z"></path></svg><svg width="19" height="33" viewBox="0 0 19 33" id="login" y="8557"><path class="cls-1" d="M16.71 28.7h-5.16v-1.641h3.3a2.151 2.151 0 1 0 0-4.293h-3.29v-5.7a9.374 9.374 0 0 0 4.25-2.272 8.273 8.273 0 0 0 .01-12.255 9.721 9.721 0 0 0-13.1 0 8.272 8.272 0 0 0-.01 12.255 9.4 9.4 0 0 0 4.26 2.27L6.96 30.85a2.064 2.064 0 0 0 .68 1.518 2.111 2.111 0 0 0 .33.262 2.422 2.422 0 0 0 1.29.366h7.45a2.151 2.151 0 1 0 0-4.296zM5.96 11.76a4.174 4.174 0 0 1 0-6.184 4.905 4.905 0 0 1 6.61 0 4.174 4.174 0 0 1 0 6.184 4.9 4.9 0 0 1-6.61 0z"></path></svg><svg viewBox="0 0 512 512" width="512" height="512" id="mail" y="8590"><path d="M467 61H45C20.218 61 0 81.196 0 106v300c0 24.72 20.128 45 45 45h422c24.72 0 45-20.128 45-45V106c0-24.72-20.128-45-45-45zm-6.214 30L256.954 294.833 51.359 91h409.427zM30 399.788V112.069l144.479 143.24L30 399.788zM51.213 421l144.57-144.57 50.657 50.222c5.864 5.814 15.327 5.795 21.167-.046L317 277.213 460.787 421H51.213zM482 399.787L338.213 256 482 112.212v287.575z"></path></svg><svg width="17.601" height="15.6" viewBox="0 0 17.601 15.6" id="menu" y="9102"><path data-name="Union 193" d="M.8 15.601a.859.859 0 0 1-.8-.8.861.861 0 0 1 .8-.8h16a.863.863 0 0 1 .8.8.86.86 0 0 1-.8.8zm0-7a.859.859 0 0 1-.8-.8.859.859 0 0 1 .8-.8h16a.86.86 0 0 1 .8.8.861.861 0 0 1-.8.8zm0-7a.859.859 0 0 1-.8-.8.861.861 0 0 1 .8-.8h16a.863.863 0 0 1 .8.8.86.86 0 0 1-.8.8z"></path></svg><svg height="469" viewBox="0 -192 469.33333 469" width="469" id="minus" y="9118"><path d="M437.332.168H32c-17.664 0-32 14.336-32 32V53.5c0 17.664 14.336 32 32 32h405.332c17.664 0 32-14.336 32-32V32.168c0-17.664-14.336-32-32-32zm0 0"></path></svg><svg width="24" height="24" viewBox="0 0 24 24" id="more" y="9587"><path fill-rule="evenodd" clip-rule="evenodd" d="M6 12a2 2 0 1 1-4 0 2 2 0 0 1 4 0zm8 0a2 2 0 1 1-4 0 2 2 0 0 1 4 0zm6 2a2 2 0 1 0 0-4 2 2 0 0 0 0 4z"></path></svg><svg width="24" height="24" viewBox="0 0 24 24" id="navigation" y="9611"><path d="M20.849 2.064l-18.331 7.5c-.771.315-.653 1.441.166 1.59l8.598 1.564 1.564 8.598c.149.82 1.275.937 1.59.166l7.5-18.331a.833.833 0 0 0-1.087-1.087zM13.975 18.21l-1.156-6.358a.833.833 0 0 0-.671-.67L5.79 10.024 19.641 4.36l-5.666 13.85z"></path></svg><svg width="56" height="24" viewBox="0 0 56 24" id="pay-apple" y="9635"><path fill-rule="evenodd" clip-rule="evenodd" d="M11.831 0c.138 1.109-.322 2.217-.965 3.049-.69.831-1.748 1.432-2.852 1.293-.138-1.062.414-2.217 1.012-2.91C9.716.647 10.866.046 11.831 0zm-2.52 5.175c.698-.273 1.566-.612 2.52-.555.598.046 2.346.23 3.403 1.893-.092.047-2.07 1.202-2.023 3.604 0 2.623 2.082 3.618 2.469 3.803l.06.03c0 .047-.368 1.34-1.288 2.68-.781 1.201-1.61 2.31-2.897 2.356-.64.023-1.064-.16-1.504-.349-.445-.192-.906-.39-1.623-.39-.76 0-1.246.21-1.715.414-.41.177-.808.35-1.366.371-1.241.046-2.207-1.247-2.989-2.402C.703 14.274-.493 9.978 1.162 7.068c.828-1.478 2.3-2.356 3.91-2.402.7 0 1.373.265 1.958.496.45.178.848.335 1.168.335.287 0 .665-.147 1.112-.322zm21.788 1.893c0-3.372-2.345-5.728-5.748-5.728h-6.53V18.8h2.713v-5.959h3.725c3.45 0 5.84-2.356 5.84-5.774zm-6.483 3.51h-3.128V3.65h3.128c2.345 0 3.678 1.248 3.678 3.465 0 2.171-1.333 3.465-3.678 3.465zm11.91.878c-3.035.185-4.737 1.571-4.737 3.788 0 2.264 1.748 3.835 4.323 3.835 1.655 0 3.265-.878 4-2.31h.047v2.079h2.483V10.07c0-2.587-1.978-4.204-5.059-4.204-3.127 0-5.104 1.709-5.242 4.019h2.483c.23-1.109 1.15-1.848 2.668-1.848 1.563 0 2.529.831 2.529 2.264v.97l-3.495.184zm3.495 1.617v1.016c0 1.663-1.426 2.91-3.265 2.91-1.38 0-2.3-.738-2.3-1.847s.874-1.802 2.438-1.894l3.127-.185zm4.92 8.361v2.125c.113.023.326.035.535.046.217.012.43.023.523.047 2.621 0 3.863-.97 4.966-4.065l4.737-13.443h-2.76l-3.218 10.394h-.046l-3.22-10.394h-2.804l4.598 12.75s-.23.739-.23.785c-.414 1.294-1.057 1.802-2.253 1.802-.184 0-.644 0-.828-.047z"></path></svg><svg width="58" height="23" viewBox="0 0 58 23" id="pay-google" y="9659"><path fill-rule="evenodd" clip-rule="evenodd" d="M13.584 5.047a5.074 5.074 0 0 0-3.572-1.387c-2.429 0-4.49 1.626-5.227 3.817a5.504 5.504 0 0 0 0 3.54c.737 2.19 2.798 3.816 5.227 3.816 1.258 0 2.334-.321 3.17-.884v-.001a4.3 4.3 0 0 0 1.218-1.216 4.24 4.24 0 0 0 .64-1.594h-5.028v-3.56h8.78c.108.62.161 1.25.16 1.88 0 2.813-1.012 5.192-2.77 6.801h-.001l.002.002c-1.543 1.412-3.659 2.232-6.171 2.232a9.359 9.359 0 0 1-4.887-1.377 9.27 9.27 0 0 1-3.432-3.718 9.194 9.194 0 0 1 0-8.303 9.27 9.27 0 0 1 3.432-3.718A9.359 9.359 0 0 1 10.012 0a8.98 8.98 0 0 1 6.229 2.407l-2.657 2.64zm13.781 5.815v6.517h-2.082V1.285h5.522a5.023 5.023 0 0 1 3.575 1.393 4.453 4.453 0 0 1 1.494 3.397 4.432 4.432 0 0 1-1.493 3.416c-.966.914-2.158 1.37-3.576 1.37h-3.44v.001zm0-7.596v5.619h3.492a2.769 2.769 0 0 0 2.06-.833 2.743 2.743 0 0 0 .836-1.966 2.727 2.727 0 0 0-.836-1.967 2.716 2.716 0 0 0-2.06-.854h-3.492v.001zm13.306 2.742c1.54 0 2.754.408 3.644 1.225.89.817 1.336 1.937 1.335 3.36v6.786h-1.992v-1.528h-.09c-.862 1.258-2.009 1.888-3.44 1.888-1.221 0-2.243-.36-3.066-1.079a3.423 3.423 0 0 1-1.234-2.697c0-1.14.434-2.045 1.302-2.718.867-.673 2.025-1.01 3.473-1.012 1.236 0 2.254.224 3.054.674v-.473a2.34 2.34 0 0 0-.86-1.83 2.96 2.96 0 0 0-2.01-.753c-1.162 0-2.082.487-2.76 1.461l-1.834-1.147c1.009-1.438 2.502-2.157 4.478-2.157zm-2.693 8a1.64 1.64 0 0 0 .69 1.349c.46.36 1.032.55 1.618.539a3.331 3.331 0 0 0 2.342-.966c.69-.644 1.034-1.4 1.034-2.269-.649-.513-1.554-.77-2.715-.77-.846 0-1.551.202-2.116.607-.57.411-.853.91-.853 1.51zm12.151 8.225l6.952-15.865h-2.267l-3.213 7.91h-.045l-3.304-7.91h-2.263l4.57 10.314-2.579 5.551h2.15z"></path></svg><svg width="39" height="21" viewBox="0 0 39 21" id="pay-master" y="9682"><path d="M27.209.526c-2.699 0-5.177.86-7.107 2.29C18.005 1.072 15.203 0 12.117 0 5.629-.002.369 4.7.369 10.499.369 16.299 5.629 21 12.117 21c3.088 0 5.888-1.073 7.985-2.815 1.93 1.427 4.408 2.287 7.107 2.287 6.152 0 11.16-4.473 11.16-9.973 0-5.5-5.008-9.973-11.16-9.973zm0 17.35c-1.983 0-3.809-.63-5.232-1.682 1.187-1.64 1.888-3.592 1.888-5.695s-.7-4.055-1.888-5.695c1.423-1.048 3.25-1.678 5.232-1.678 4.547 0 8.247 3.308 8.247 7.373s-3.7 7.377-8.247 7.377z"></path></svg><svg width="53" height="15" viewBox="0 0 53 15" id="pay-mir" y="9703"><path d="M20.492 0v14.903h4.277s1.07 0 1.652-1.064c2.916-5.71 3.79-7.452 3.79-7.452h.584v8.516h4.86V0h-4.277s-1.069.097-1.652 1.065c-2.43 4.935-3.79 7.451-3.79 7.451h-.584V0h-4.86zm16.232 0h10.011c2.916 0 5.346 2.42 5.346 5.323 0 .29 0 .774-.097 1.064h-7.97c-3.5 0-6.707-3.097-7.29-6.387zm.875 15V6.968h14.19c-.68 2.129-2.721 3.774-5.054 3.774H42.46V15H37.6zM.081.097V15h4.665V6.968h.584L8.05 15h2.139l2.721-8.032h.583V15h4.86V.097h-4.86s-1.36 0-2.138 2.129c-1.75 5.032-2.138 6.387-2.138 6.387s-.195-.774-2.139-6.387C6.302.096 4.941.096 4.941.096H.08z"></path></svg><svg width="52" height="16" viewBox="0 0 52 16" id="pay-visa" y="9718"><path fill-rule="evenodd" clip-rule="evenodd" d="M36.649 10.514c0 3.154-2.854 5.257-7.285 5.257-1.877 0-3.68-.375-4.656-.826l.6-3.455.527.226c1.351.6 2.253.826 3.905.826 1.201 0 2.478-.45 2.478-1.502 0-.676-.526-1.127-2.178-1.878-1.577-.75-3.68-1.952-3.68-4.13C26.36 2.028 29.29 0 33.42 0c1.577 0 2.929.3 3.755.676l-.601 3.304-.3-.3c-.752-.3-1.728-.6-3.155-.6-1.577.074-2.328.75-2.328 1.35 0 .677.901 1.203 2.328 1.878 2.404 1.127 3.53 2.404 3.53 4.206zM47.914.225h-3.23c-.975 0-1.726.3-2.177 1.277l-6.158 14.044h4.355s.751-1.878.902-2.328h5.332c.15.525.526 2.253.526 2.253h3.905L47.914.225zm-5.107 9.839c.376-.902 1.652-4.281 1.652-4.281 0 .075.376-.901.526-1.427l.3 1.352s.827 3.68.977 4.43h-3.455v-.074zM.075.075L0 .375c5.032 1.202 8.336 4.131 9.763 7.736L8.336 1.352C8.111.376 7.435.075 6.534.075H.075zm18.775.15l-6.534 15.246h-4.43L4.13 2.704c2.703 1.727 4.956 4.43 5.782 6.308l.45 1.577L14.42.15h4.431v.075zM24.708.15h-4.13l-2.629 15.32h4.13L24.71.15z"></path></svg><svg viewBox="0 0 512 512" width="512" height="512" id="pencil" y="9734"><path d="M51.2 353.28L0 512l158.72-51.2zm35.96-36.788L336.96 66.69 445.57 175.3l-249.8 249.802zM504.32 79.36L432.64 7.68c-10.24-10.24-25.6-10.24-35.84 0l-23.04 23.04 107.52 107.52 23.04-23.04c10.24-10.24 10.24-25.6 0-35.84z"></path></svg><svg width="24" height="24" viewBox="0 0 24 24" id="phone" y="10246"><path d="M20.082 18.637l-.54-.836c-.97-1.484-2.309-3.188-4.065-3.188-.325 0-.648.06-.966.184l-.943.375c-.086.033-.17.07-.258.11-.242.11-.515.233-.797.233-.694 0-1.498-.838-2.264-2.36-.752-1.494-.704-2.277-.531-2.67.19-.436.633-.621 1.109-.788l.184-.067.954-.373c2.487-.965 1.562-4.337 1.258-5.442l-.257-.95C12.746 2.08 12.163 0 10.23 0c-.358 0-.74.077-1.135.23-.26.096-3.825 1.446-5.117 3.82-1.544 2.824-1.259 6.61.848 11.253 2.09 4.648 4.8 7.491 8.056 8.45.559.165 1.19.248 1.876.248 2.247 0 4.465-.887 4.645-.96.775-.305 1.275-.768 1.488-1.376.36-1.032-.244-2.162-.81-3.027zm-.855 2.526c-.05.141-.222.27-.511.383l-.016.006c-.02.009-2.027.825-3.942.824-.506 0-.96-.057-1.346-.172-2.743-.807-5.089-3.34-6.973-7.53-1.898-4.184-2.201-7.512-.9-9.892 1.01-1.856 4.174-3.033 4.205-3.044l.018-.007c.18-.07.342-.107.467-.107.386 0 .737.555 1.042 1.642l.256.947c.552 2.013.468 3.272-.24 3.547l-.95.371c-.037.015-.081.03-.13.047-.525.184-1.617.568-2.11 1.695-.449 1.023-.263 2.32.566 3.969 1.117 2.218 2.376 3.297 3.85 3.297.684 0 1.233-.248 1.561-.396.06-.027.115-.052.173-.074l.944-.376a.782.782 0 0 1 .286-.056c.454 0 1.269.418 2.567 2.402l.539.835c.664 1.018.716 1.48.644 1.689z"></path></svg><svg viewBox="0 0 473.806 473.806" width="473.806" height="473.806" id="phone-call" y="10270"><path d="M374.456 293.506c-9.7-10.1-21.4-15.5-33.8-15.5-12.3 0-24.1 5.3-34.2 15.4l-31.6 31.5c-2.6-1.4-5.2-2.7-7.7-4-3.6-1.8-7-3.5-9.9-5.3-29.6-18.8-56.5-43.3-82.3-75-12.5-15.8-20.9-29.1-27-42.6 8.2-7.5 15.8-15.3 23.2-22.8 2.8-2.8 5.6-5.7 8.4-8.5 21-21 21-48.2 0-69.2l-27.3-27.3c-3.1-3.1-6.3-6.3-9.3-9.5-6-6.2-12.3-12.6-18.8-18.6-9.7-9.6-21.3-14.7-33.5-14.7s-24 5.1-34 14.7l-.2.2-34 34.3c-12.8 12.8-20.1 28.4-21.7 46.5-2.4 29.2 6.2 56.4 12.8 74.2 16.2 43.7 40.4 84.2 76.5 127.6 43.8 52.3 96.5 93.6 156.7 122.7 23 10.9 53.7 23.8 88 26 2.1.1 4.3.2 6.3.2 23.1 0 42.5-8.3 57.7-24.8.1-.2.3-.3.4-.5 5.2-6.3 11.2-12 17.5-18.1 4.3-4.1 8.7-8.4 13-12.9 9.9-10.3 15.1-22.3 15.1-34.6 0-12.4-5.3-24.3-15.4-34.3l-54.9-55.1zm35.8 105.3c-.1 0-.1.1 0 0-3.9 4.2-7.9 8-12.2 12.2-6.5 6.2-13.1 12.7-19.3 20-10.1 10.8-22 15.9-37.6 15.9-1.5 0-3.1 0-4.6-.1-29.7-1.9-57.3-13.5-78-23.4-56.6-27.4-106.3-66.3-147.6-115.6-34.1-41.1-56.9-79.1-72-119.9-9.3-24.9-12.7-44.3-11.2-62.6 1-11.7 5.5-21.4 13.8-29.7l34.1-34.1c4.9-4.6 10.1-7.1 15.2-7.1 6.3 0 11.4 3.8 14.6 7l.3.3c6.1 5.7 11.9 11.6 18 17.9 3.1 3.2 6.3 6.4 9.5 9.7l27.3 27.3c10.6 10.6 10.6 20.4 0 31-2.9 2.9-5.7 5.8-8.6 8.6-8.4 8.6-16.4 16.6-25.1 24.4-.2.2-.4.3-.5.5-8.6 8.6-7 17-5.2 22.7l.3.9c7.1 17.2 17.1 33.4 32.3 52.7l.1.1c27.6 34 56.7 60.5 88.8 80.8 4.1 2.6 8.3 4.7 12.3 6.7 3.6 1.8 7 3.5 9.9 5.3.4.2.8.5 1.2.7 3.4 1.7 6.6 2.5 9.9 2.5 8.3 0 13.5-5.2 15.2-6.9l34.2-34.2c3.4-3.4 8.8-7.5 15.1-7.5 6.2 0 11.3 3.9 14.4 7.3l.2.2 55.1 55.1c10.3 10.2 10.3 20.7.1 31.3zm-154.2-286.1c26.2 4.4 50 16.8 69 35.8s31.3 42.8 35.8 69c1.1 6.6 6.8 11.2 13.3 11.2.8 0 1.5-.1 2.3-.2 7.4-1.2 12.3-8.2 11.1-15.6-5.4-31.7-20.4-60.6-43.3-83.5s-51.8-37.9-83.5-43.3c-7.4-1.2-14.3 3.7-15.6 11s3.5 14.4 10.9 15.6zm217.2 96.3c-8.9-52.2-33.5-99.7-71.3-137.5s-85.3-62.4-137.5-71.3c-7.3-1.3-14.2 3.7-15.5 11-1.2 7.4 3.7 14.3 11.1 15.6 46.6 7.9 89.1 30 122.9 63.7 33.8 33.8 55.8 76.3 63.7 122.9 1.1 6.6 6.8 11.2 13.3 11.2.8 0 1.5-.1 2.3-.2 7.3-1.1 12.3-8.1 11-15.4z"></path></svg><svg viewBox="0 0 494.148 494.148" width="494.148" height="494.148" id="play" y="10744"><path d="M405.284 201.188L130.804 13.28C118.128 4.596 105.356 0 94.74 0 74.216 0 61.52 16.472 61.52 44.044v406.124c0 27.54 12.68 43.98 33.156 43.98 10.632 0 23.2-4.6 35.904-13.308l274.608-187.904c17.66-12.104 27.44-28.392 27.44-45.884.004-17.48-9.664-33.764-27.344-45.864z"></path></svg><svg height="448" viewBox="0 0 448 448" width="448" id="plus" y="11239"><path d="M408 184H272a8 8 0 0 1-8-8V40c0-22.09-17.91-40-40-40s-40 17.91-40 40v136a8 8 0 0 1-8 8H40c-22.09 0-40 17.91-40 40s17.91 40 40 40h136a8 8 0 0 1 8 8v136c0 22.09 17.91 40 40 40s40-17.91 40-40V272a8 8 0 0 1 8-8h136c22.09 0 40-17.91 40-40s-17.91-40-40-40zm0 0"></path></svg><svg width="24" height="24" viewBox="0 0 24 24" id="plus-round" y="11687"><path fill-rule="evenodd" clip-rule="evenodd" d="M1 12C1 5.934 5.934 1 12 1s11 4.935 11 11-4.934 11-11 11S1 18.066 1 12zm1.704 0c0 5.126 4.17 9.296 9.296 9.296 5.126 0 9.296-4.17 9.296-9.296 0-5.126-4.17-9.296-9.296-9.296-5.125 0-9.296 4.17-9.296 9.296zm10.148-.929h3.408a.852.852 0 1 1 0 1.704h-3.408v3.409a.852.852 0 1 1-1.704 0v-3.409H7.74a.852.852 0 1 1 0-1.704h3.408V7.663a.852.852 0 1 1 1.704 0v3.408z"></path></svg><svg width="24" height="24" viewBox="0 0 24 24" id="question" y="11711"><path fill-rule="evenodd" clip-rule="evenodd" d="M12 21a9 9 0 1 0 0-18 9 9 0 0 0 0 18zm0 2c6.075 0 11-4.925 11-11S18.075 1 12 1 1 5.925 1 12s4.925 11 11 11zm.952-7.948V12.78c1.842-.443 3.118-2.106 3.045-3.986-.079-2.048-1.767-3.713-3.843-3.79a4.004 4.004 0 0 0-2.948 1.112A3.872 3.872 0 0 0 8 8.934a.95.95 0 0 0 .952.948.95.95 0 0 0 .953-.948c0-.552.22-1.068.623-1.453a2.113 2.113 0 0 1 1.555-.584c1.086.041 1.97.906 2.01 1.969a2.059 2.059 0 0 1-1.633 2.081 1.774 1.774 0 0 0-1.412 1.74v2.365A.95.95 0 0 0 12 16a.95.95 0 0 0 .952-.948zM12 19a1 1 0 1 0 0-2 1 1 0 0 0 0 2z"></path></svg><svg width="24" height="24" viewBox="0 0 24 24" id="reload" y="11735"><path fill-rule="evenodd" clip-rule="evenodd" d="M7.596 16.56a.83.83 0 0 1 .922.723l.38 3.091a.833.833 0 0 1-.722.924l-3.045.38c-.531.04-.874-.303-.927-.724a.835.835 0 0 1 .722-.927l1.013-.126A9.933 9.933 0 0 1 2.486 8.906C3.8 4.81 7.673 1.996 11.947 2c.555 0 .882.392.873.85-.012.457-.347.808-.873.808-3.563.008-6.788 2.349-7.886 5.759a8.281 8.281 0 0 0 2.951 9.218l-.139-1.148a.832.832 0 0 1 .723-.927zM19.073 3.977l-1.012.126a9.925 9.925 0 0 1 3.453 10.987C20.2 19.186 16.326 22 12.05 22c-.555 0-.882-.392-.874-.85.013-.457.347-.808.874-.808 3.563-.008 6.788-2.348 7.886-5.759a8.282 8.282 0 0 0-2.951-9.218l.138 1.148a.83.83 0 0 1-1.645.204l-.375-3.087a.833.833 0 0 1 .723-.923l3.044-.38c.531-.041.874.302.927.723a.835.835 0 0 1-.723.927z"></path></svg><svg width="24" height="22" viewBox="0 0 24 22" id="repeat" y="11759"><defs><path id="a" d="M1515.477 514.514c-1.232 2.532-3.395 4.441-6.088 5.377a10.878 10.878 0 0 1-3.577.604c-2.96 0-5.816-1.219-7.835-3.344a1.247 1.247 0 0 1 .068-1.788 1.287 1.287 0 0 1 1.794.066 8.264 8.264 0 0 0 5.974 2.55 8.29 8.29 0 0 0 2.73-.461c3.245-1.128 5.425-4.153 5.425-7.529 0-.907-.158-1.801-.469-2.66-1.15-3.18-4.24-5.316-7.692-5.316a8.25 8.25 0 0 0-2.72.461c-1.697.589-3.107 1.671-4.07 3.104l2.508-.872a1.276 1.276 0 0 1 1.623.762 1.26 1.26 0 0 1-.778 1.612l-5.358 1.864a1.285 1.285 0 0 1-.97-.05 1.265 1.265 0 0 1-.653-.71l-1.8-4.98a1.238 1.238 0 0 1-.076-.426c0-.533.343-1.01.854-1.186a1.284 1.284 0 0 1 1.621.764l.749 2.073c1.27-2.007 3.19-3.524 5.503-4.328 1.15-.401 2.35-.604 3.567-.604 4.526 0 8.582 2.806 10.095 6.984.412 1.142.62 2.326.62 3.52 0 1.567-.351 3.085-1.045 4.513z"></path></defs><use xlink:href="#a" transform="translate(-1493 -499)"></use></svg><svg width="23" height="23" viewBox="0 0 23 23" id="search" y="11781"><path d="M12.989 17.206a7.369 7.369 0 0 1-5.184-2.153l-.002-.002c-2.86-2.865-2.857-7.523.008-10.384a7.293 7.293 0 0 1 5.19-2.148h.004a7.291 7.291 0 0 1 5.19 2.155c2.862 2.865 2.859 7.524-.005 10.384A7.298 7.298 0 0 1 13 17.206zm-11.86 5.649c.29 0 .58-.111.8-.331L7.052 17.4a9.652 9.652 0 0 0 5.936 2.064H13a9.54 9.54 0 0 0 6.785-2.808c3.747-3.742 3.75-9.834.008-13.58A9.54 9.54 0 0 0 13.006.26H13a9.54 9.54 0 0 0-6.786 2.808c-3.475 3.472-3.73 8.967-.76 12.735L.331 20.926a1.127 1.127 0 0 0 0 1.598c.221.22.51.33.799.33z"></path></svg><svg width="24" height="24" viewBox="0 0 24 24" id="soc-fb" y="11804"><path d="M22 5.316C22 3.554 20.446 2 18.684 2H5.316C3.554 2 2 3.554 2 5.316v13.368C2 20.446 3.554 22 5.316 22h6.736v-7.565H9.565V11.12h2.487V9.772c0-2.28 1.658-4.249 3.73-4.249h2.695V8.84h-2.695c-.31 0-.621.311-.621.933v1.347h3.316v3.316H15.16V22h3.523C20.446 22 22 20.446 22 18.684V5.316z"></path></svg><svg width="24" height="24" viewBox="0 0 24 24" id="soc-inst-light" y="11828"><path fill-rule="evenodd" clip-rule="evenodd" d="M22.94 7.468c-.052-1.169-.24-1.973-.512-2.669a5.368 5.368 0 0 0-1.272-1.951A5.413 5.413 0 0 0 19.21 1.58c-.7-.27-1.5-.46-2.668-.511C15.363 1.013 14.989 1 12.002 1s-3.36.013-4.534.064c-1.169.052-1.973.241-2.669.512-.74.28-1.4.709-1.951 1.272A5.417 5.417 0 0 0 1.58 4.795c-.27.7-.46 1.5-.511 2.669C1.013 8.64 1 9.015 1 12.002s.013 3.361.064 4.534c.052 1.17.241 1.973.512 2.67.28.738.713 1.4 1.272 1.95.55.56 1.216.993 1.947 1.268.7.271 1.5.46 2.669.512 1.173.051 1.547.064 4.534.064s3.36-.013 4.534-.064c1.169-.052 1.973-.241 2.669-.512a5.628 5.628 0 0 0 3.219-3.219c.27-.7.46-1.5.511-2.669.052-1.173.065-1.547.065-4.534s-.005-3.36-.056-4.534zm-1.981 8.982c-.048 1.075-.228 1.655-.378 2.042a3.65 3.65 0 0 1-2.09 2.088c-.386.15-.97.331-2.04.379-1.161.051-1.51.064-4.444.064-2.936 0-3.288-.013-4.444-.064-1.075-.048-1.655-.228-2.042-.378a3.386 3.386 0 0 1-1.263-.821 3.42 3.42 0 0 1-.821-1.264c-.15-.387-.331-.971-.378-2.041-.052-1.16-.065-1.509-.065-4.444 0-2.936.013-3.288.065-4.444.047-1.074.227-1.655.378-2.041.176-.478.455-.912.825-1.264a3.415 3.415 0 0 1 1.264-.82c.386-.151.97-.332 2.041-.38 1.16-.05 1.509-.064 4.444-.064 2.94 0 3.288.013 4.444.065 1.074.047 1.654.228 2.041.378.477.176.911.456 1.264.82.365.358.644.787.82 1.265.15.386.331.97.379 2.041.051 1.16.064 1.508.064 4.444 0 2.935-.013 3.279-.064 4.44zm-8.957-10.1a5.653 5.653 0 0 0-5.651 5.652 5.653 5.653 0 0 0 5.651 5.652 5.653 5.653 0 0 0 5.652-5.652 5.653 5.653 0 0 0-5.652-5.651zm0 9.318a3.667 3.667 0 1 1 .001-7.333 3.667 3.667 0 0 1 0 7.333zm5.875-8.221a1.32 1.32 0 1 0 0-2.64 1.32 1.32 0 0 0 0 2.64z"></path></svg><svg width="24" height="24" viewBox="0 0 24 24" id="soc-telegram" y="11852"><path d="M1.386 11.6l5.058 1.965 1.971 6.612c.086.446.6.536.943.268l2.83-2.413c.256-.268.685-.268 1.028 0l5.058 3.842c.343.268.857.09.943-.357l3.772-18.762c.086-.447-.343-.893-.772-.715L1.386 10.438c-.515.18-.515.983 0 1.162zm6.772.983l9.944-6.344c.172-.089.343.18.172.268L10.13 14.46c-.257.268-.514.625-.514 1.072l-.258 2.144c0 .268-.428.357-.514 0l-1.029-3.931c-.257-.447-.085-.983.343-1.161z"></path></svg><svg width="24" height="24" viewBox="0 0 24 24" id="soc-telegram-light" y="11876"><path d="M18.71 22a.861.861 0 0 1-.488-.153l-5.532-3.813-2.967 2.17a.86.86 0 0 1-.803.114.88.88 0 0 1-.548-.607l-1.49-5.738-5.322-2.068a.885.885 0 0 1-.56-.821.885.885 0 0 1 .549-.829l20.24-8.185a.86.86 0 0 1 .996.232.89.89 0 0 1 .197.76l-3.416 18.219a.882.882 0 0 1-.522.651.858.858 0 0 1-.333.068zm-5.534-5.77l4.927 3.397L20.761 5.45l-9.6 9.39 1.992 1.373.023.016zm-4.102-.756l.66 2.541 1.421-1.04-1.861-1.283a.875.875 0 0 1-.22-.218zm-4.807-4.413l3.655 1.42a.88.88 0 0 1 .53.601l.464 1.786a.891.891 0 0 1 .263-.546l9.148-8.947-14.06 5.686z"></path></svg><svg width="22" height="18" viewBox="0 0 22 18" id="soc-twitter" y="11900"><path d="M22 2.13a9.321 9.321 0 0 1-2.599.718 4.51 4.51 0 0 0 1.984-2.51 8.976 8.976 0 0 1-2.86 1.1A4.505 4.505 0 0 0 15.231 0c-2.497 0-4.507 2.04-4.507 4.543 0 .36.03.706.104 1.036-3.75-.185-7.067-1.994-9.296-4.751a4.597 4.597 0 0 0-.618 2.296c0 1.573.805 2.967 2.004 3.774a4.43 4.43 0 0 1-2.038-.56v.05a4.555 4.555 0 0 0 3.614 4.463c-.368.101-.768.15-1.183.15-.289 0-.58-.017-.854-.078.585 1.799 2.243 3.121 4.215 3.164a9.023 9.023 0 0 1-5.593 1.937c-.37 0-.724-.017-1.079-.062A12.633 12.633 0 0 0 6.919 18c8.3 0 12.837-6.923 12.837-12.924 0-.2-.007-.395-.017-.587A9.034 9.034 0 0 0 22 2.13z"></path></svg><svg width="24" height="24" viewBox="0 0 24 24" id="soc-viber" y="11918"><path d="M17.48 1.522c-3.63-.696-7.4-.696-11.03 0-1.605.348-3.63 2.298-3.979 3.83a21.968 21.968 0 0 0 0 9.05c.419 1.532 2.443 3.482 3.98 3.83.07 0 .139.07.139.14v4.385c0 .21.28.348.419.14l2.094-2.159s1.675-1.74 1.955-2.019c0 0 .07-.07.14-.07 2.093.07 4.258-.139 6.352-.487 1.605-.348 3.63-2.297 3.979-3.829a21.967 21.967 0 0 0 0-9.051c-.42-1.462-2.444-3.412-4.05-3.76zm.07 13.09c-.35.696-.768 1.253-1.466 1.6l-.628.21a8.85 8.85 0 0 1-.699-.21c-2.233-.904-4.328-2.157-6.003-3.968A16.747 16.747 0 0 1 6.45 8.763c-.279-.627-.558-1.184-.768-1.81-.21-.557.14-1.114.489-1.532.35-.418.768-.696 1.257-.905.349-.209.698-.07.977.209.558.696 1.117 1.392 1.536 2.158.279.488.21 1.045-.28 1.393-.14.07-.209.139-.349.278-.07.07-.209.14-.279.279-.14.209-.14.417-.07.626.559 1.602 1.606 2.855 3.212 3.551.279.14.488.209.837.209.489-.07.698-.627 1.047-.905.35-.279.768-.279 1.187-.07.35.21.698.488 1.117.766.349.279.698.488 1.047.766.21.14.28.487.14.835zM14.618 9.39c-.14 0-.07 0 0 0-.28 0-.35-.14-.419-.348 0-.14 0-.349-.07-.488a1.323 1.323 0 0 0-.489-.766l-.418-.209c-.21-.07-.35-.07-.559-.07-.21-.069-.28-.208-.28-.417 0-.14.21-.278.35-.278 1.117.07 1.955.696 2.094 2.019v.278c0 .14-.07.279-.21.279zm-.698-3.064c-.35-.139-.698-.278-1.117-.348-.14 0-.35-.07-.489-.07-.21 0-.349-.139-.28-.348 0-.209.14-.348.35-.278.698.07 1.326.209 1.955.487 1.256.627 1.954 1.671 2.164 3.064v.905c-.07.278-.559.348-.629 0 0-.07-.07-.21-.07-.279a4.07 4.07 0 0 0-.418-1.81c-.42-.627-.908-1.044-1.466-1.323zm3.77 4.178c-.21 0-.35-.21-.35-.418 0-.418-.07-.836-.14-1.253-.278-2.228-2.093-4.038-4.258-4.387-.349-.07-.698-.07-.977-.139-.21 0-.489 0-.558-.278-.07-.21.14-.418.349-.418h.14c2.861.07.139 0 0 0 2.931.07 5.374 2.019 5.863 4.943.07.488.14.975.14 1.532.14.209 0 .418-.21.418z"></path></svg><svg width="24" height="24" viewBox="0 0 24 24" id="soc-vk" y="11942"><path d="M23.777 17.562c0-.096-.095-.096-.095-.192-.382-.767-1.242-1.726-2.388-2.781-.573-.48-.86-.863-1.05-1.055-.287-.383-.287-.671-.191-1.055.095-.287.477-.767 1.146-1.63.382-.48.573-.767.86-1.054 1.432-1.918 2.1-3.165 1.909-3.74l-.095-.096c-.096-.096-.191-.192-.382-.192-.191-.096-.478-.096-.764 0H18.43l-.096.096c-.095.096-.095.096-.095.192-.382 1.055-.86 1.918-1.337 2.877-.287.479-.573.958-.86 1.342-.286.384-.477.671-.668.863-.191.192-.382.288-.478.48-.095.095-.286.191-.286.095-.095 0-.191 0-.191-.096l-.286-.287c-.096-.096-.096-.288-.191-.48V6.055c0-.096-.096-.288-.096-.384l-.286-.287c-.096-.096-.287-.096-.382-.192A8.531 8.531 0 0 0 11.458 5c-1.527 0-2.577.096-2.96.288-.19.096-.381.191-.477.383-.19.192-.19.288-.095.288.477.096.86.288 1.05.575l.096.192c.095.096.095.288.19.575.096.288.096.576.096.96v1.534c0 .479-.095.767-.095 1.054 0 .288-.096.48-.191.576-.096.191-.096.287-.191.287 0 0 0 .096-.096.096-.095 0-.19.096-.382.096-.095 0-.286-.096-.382-.192a1.153 1.153 0 0 1-.477-.48c-.191-.19-.382-.479-.573-.862-.191-.384-.478-.767-.669-1.343l-.19-.383a13.594 13.594 0 0 1-.478-1.055c-.191-.48-.382-.863-.573-1.342a1.323 1.323 0 0 0-.286-.384h-.096s-.095-.096-.191-.096c-.095 0-.19-.096-.286-.096H.764c-.382 0-.573.096-.669.192L0 5.959v.192c0 .096 0 .191.095.383.478 1.15 1.05 2.302 1.624 3.452.573 1.055 1.146 2.014 1.528 2.685.477.671.86 1.343 1.337 1.918s.763.959.859 1.15l.382.384.286.288c.191.192.478.48.86.767.382.288.86.575 1.337.863.477.288 1.05.48 1.623.671.668.192 1.241.288 1.814.192h1.433c.286 0 .477-.096.668-.288l.096-.096c0-.095.095-.095.095-.191v-.384c0-.383 0-.671.096-.959.095-.287.095-.48.19-.67.096-.193.191-.289.287-.384l.191-.192h.095c.191-.096.478 0 .669.191.286.192.573.48.764.768.19.287.477.575.86.958.381.384.668.672.859.768l.286.191c.191.096.382.192.669.288.286.096.477.096.668.096l3.247-.096c.286 0 .573-.096.764-.192.19-.096.286-.192.286-.383v-.384c-.19-.192-.19-.288-.19-.383z"></path></svg><svg width="24" height="24" viewBox="0 0 24 24" id="soc-wp" y="11966"><path d="M19.073 4.917A9.932 9.932 0 0 0 12.035 2C6.53 2 2.07 6.444 2.07 11.93c0 1.737.487 3.473 1.324 4.931L2 22l5.296-1.389a10.189 10.189 0 0 0 4.739 1.18c5.505 0 9.965-4.444 9.965-9.93-.07-2.57-1.045-5.07-2.927-6.944zm-2.23 10.555c-.209.556-1.184 1.111-1.672 1.18-.418.07-.976.07-1.533-.069-.349-.139-.837-.277-1.394-.555-2.509-1.042-4.112-3.542-4.251-3.75-.14-.14-1.045-1.32-1.045-2.57 0-1.25.627-1.805.836-2.083.209-.278.488-.278.697-.278h.488c.139 0 .348-.07.557.417.21.486.697 1.736.767 1.805a.44.44 0 0 1 0 .417c-.07.139-.14.278-.28.417-.138.139-.278.347-.348.416-.139.14-.278.278-.139.487.14.277.627 1.041 1.394 1.736.976.833 1.742 1.11 2.02 1.25.28.139.419.07.558-.07.14-.139.627-.694.767-.972s.348-.208.557-.139c.21.07 1.464.695 1.673.833.278.14.418.209.488.278.07.209.07.695-.14 1.25z"></path></svg><svg width="24" height="24" viewBox="0 0 24 24" id="soc-wp-light" y="11990"><path fill-rule="evenodd" clip-rule="evenodd" d="M19.795 4.197A10.91 10.91 0 0 0 12.046 1C6.008 1 1.094 5.89 1.092 11.9c0 1.922.503 3.798 1.462 5.451L1 23l5.807-1.516c1.6.869 3.401 1.326 5.235 1.327h.004c6.037 0 10.952-4.89 10.954-10.902a10.808 10.808 0 0 0-3.205-7.712zM12.046 20.97h-.004a9.126 9.126 0 0 1-4.634-1.263l-.332-.197-3.446.9.92-3.344-.217-.342A9.007 9.007 0 0 1 2.941 11.9c.002-4.995 4.087-9.06 9.109-9.06a9.068 9.068 0 0 1 6.436 2.657 8.986 8.986 0 0 1 2.665 6.41c-.003 4.997-4.087 9.062-9.105 9.062zm4.994-6.786c-.274-.137-1.62-.796-1.87-.887-.25-.09-.434-.136-.616.137-.183.272-.707.886-.867 1.068-.16.181-.319.204-.593.068-.273-.136-1.155-.424-2.2-1.352-.814-.722-1.364-1.614-1.523-1.887-.16-.273-.002-.406.12-.556.296-.366.593-.75.684-.932.091-.181.045-.34-.023-.477-.068-.136-.616-1.477-.844-2.022-.222-.531-.448-.46-.616-.468-.16-.008-.342-.01-.524-.01-.183 0-.48.069-.73.341-.251.273-.958.932-.958 2.273 0 1.34.98 2.636 1.118 2.818.136.181 1.93 2.933 4.675 4.112a15.61 15.61 0 0 0 1.56.574c.656.208 1.253.178 1.724.108.526-.078 1.62-.659 1.848-1.295.228-.636.228-1.181.16-1.295-.069-.114-.251-.182-.525-.318z"></path></svg><svg width="48" height="48" viewBox="0 0 48 48" id="star" y="12014"><path d="M43.917 19.105c-.198-.64-.723-1.104-1.357-1.2l-11.787-1.806-5.275-11.197c-.569-1.203-2.447-1.203-3.015 0L17.207 16.1 5.44 17.904a1.704 1.704 0 0 0-1.357 1.2 1.824 1.824 0 0 0 .425 1.808l8.514 8.716L11.02 41.94c-.11.66.15 1.329.669 1.724.292.222.639.335.987.335.267 0 .536-.067.787-.205l10.53-5.81 10.55 5.812c.567.31 1.255.263 1.771-.136a1.806 1.806 0 0 0 .667-1.726l-2.017-12.309 8.529-8.716a1.813 1.813 0 0 0 .425-1.805zM31.98 27.75a1.82 1.82 0 0 0-.483 1.562l1.59 9.703-8.315-4.582a1.628 1.628 0 0 0-.781-.201c-.271 0-.54.067-.784.203l-8.302 4.579 1.579-9.705A1.816 1.816 0 0 0 16 27.75l-6.713-6.87 9.279-1.425a1.684 1.684 0 0 0 1.264-.96l4.16-8.828 4.159 8.825c.245.519.718.88 1.264.963l9.29 1.425-6.724 6.871z"></path></svg><svg viewBox="0 0 477.899 477.899" width="477.899" height="477.899" id="star-empty" y="12062"><path d="M469.11 170.122a34.592 34.592 0 0 0-21.058-11.249v-.017l-127.01-17.545-50.261-120.098c-7.339-17.579-27.539-25.88-45.117-18.541a34.492 34.492 0 0 0-18.541 18.541l-50.261 120.098-127.01 17.545C10.929 161.49-2.276 178.967.358 197.89a34.592 34.592 0 0 0 11.249 21.058l95.693 85.333-19.662 133.904a34.133 34.133 0 0 0 15.838 34.355 34.013 34.013 0 0 0 37.7-.7l97.775-66.492 97.775 66.56c15.777 10.708 37.248 6.599 47.957-9.178a34.527 34.527 0 0 0 5.582-24.477l-19.661-133.956 95.693-85.333c14.264-12.71 15.524-34.578 2.813-48.842zm-128.1 114.89a17.07 17.07 0 0 0-5.513 15.224l20.48 143.36-107.383-73.011a17.065 17.065 0 0 0-19.183 0l-108.015 72.567 21.009-142.984a17.065 17.065 0 0 0-5.513-15.155l-102.4-92.297 136.67-18.859a17.064 17.064 0 0 0 13.414-10.325l54.579-129.399a.764.764 0 0 1 .137.256l54.016 129.075a17.066 17.066 0 0 0 13.414 10.325l136.841 19.695-102.553 91.528z"></path></svg><svg width="48" height="48" viewBox="0 0 48 48" id="star-full" y="12540"><path d="M43.917 19.105c-.198-.64-.723-1.104-1.357-1.2l-11.787-1.806-5.275-11.197c-.569-1.203-2.447-1.203-3.015 0L17.207 16.1 5.44 17.904a1.704 1.704 0 0 0-1.357 1.2 1.824 1.824 0 0 0 .425 1.808l8.514 8.716L11.02 41.94c-.11.66.15 1.329.669 1.724.292.222.639.335.987.335.267 0 .536-.067.787-.205l10.53-5.81 10.55 5.812c.567.31 1.255.263 1.771-.136a1.806 1.806 0 0 0 .667-1.726l-2.017-12.309 8.529-8.716a1.813 1.813 0 0 0 .425-1.805z"></path></svg><svg height="512" viewBox="0 0 512 512.00051" width="512" id="tick--color" y="12588"><path d="M504.34 187.367v269.344c0 13.816-5.88 26.254-15.266 34.965-8.515 7.894-19.91 12.719-32.43 12.719H55.294c-12.52 0-23.914-4.825-32.418-12.711-9.39-8.72-15.27-21.157-15.27-34.973V187.367zm0 0" fill="#fec970"></path><path d="M258 504.395H55.293c-26.336 0-47.688-21.348-47.688-47.684V185.766l52.97 45.71 3.304 2.747v135.933c0 46.246 18.66 90.078 61.207 108.223C164.34 495.12 234.18 504.395 258 504.395zm0 0" fill="#fba028"></path><path d="M504.34 187.367L313.406 28.387C280.13.68 231.812.68 198.536 28.387L7.601 187.367h.003l56.274 46.856 134.656 112.12c33.281 27.716 81.598 27.716 114.867 0l134.668-112.12z" fill="#fba028"></path><path d="M448.07 88.152v146.07L313.402 346.345c-33.27 27.715-81.586 27.715-114.867 0L63.88 234.223V88.153c0-30.454 24.695-55.15 55.16-55.15h273.883c30.46 0 55.148 24.696 55.148 55.15zm0 0" fill="#bfdadd"></path><path d="M448.07 88.152V200.77L313.402 312.89c-33.27 27.715-81.586 27.715-114.867 0L63.88 200.77V88.152c0-30.453 24.695-55.148 55.16-55.148h273.883c30.46 0 55.148 24.695 55.148 55.148zm0 0" fill="#e4f5f7"></path><path d="M494.203 114.055c0 58.507-47.43 105.937-105.937 105.937s-105.938-47.43-105.938-105.937c0-58.512 47.43-105.942 105.938-105.942s105.937 47.43 105.937 105.942zm0 0" fill="#26bf64"></path><path d="M494.2 114.05c0 51.485-36.716 94.388-85.395 103.95-48.684-9.55-85.41-52.465-85.41-103.95 0-51.48 36.726-94.39 85.41-103.94 48.68 9.558 85.394 52.46 85.394 103.94zm0 0" fill="#49d685"></path><path d="M453.18 471.688a7.57 7.57 0 0 0 4.86 1.761 7.583 7.583 0 0 0 5.847-2.742 7.599 7.599 0 0 0-.98-10.707L341.675 359.062a7.604 7.604 0 1 0-9.73 11.688zm-399.274 1.757a7.575 7.575 0 0 0 4.864-1.757l121.234-100.942a7.601 7.601 0 0 0 .976-10.707 7.602 7.602 0 0 0-10.707-.977L49.043 460a7.599 7.599 0 0 0-.98 10.707 7.572 7.572 0 0 0 5.843 2.738zm90.559-247.613h160.172a7.603 7.603 0 0 0 7.601-7.605 7.6 7.6 0 0 0-7.601-7.602H144.465a7.604 7.604 0 1 0 0 15.207zm223.019 28.949h-223.02a7.603 7.603 0 1 0 0 15.207h223.02c4.204 0 7.606-3.402 7.606-7.601s-3.406-7.606-7.606-7.606zM144.465 137.516h111.512a7.604 7.604 0 0 0 0-15.207H144.465a7.606 7.606 0 0 0-7.606 7.601c0 4.2 3.407 7.606 7.606 7.606zm67.152 36.554c0 4.2 3.406 7.602 7.606 7.602h55a7.6 7.6 0 0 0 7.601-7.602 7.603 7.603 0 0 0-7.601-7.605h-55a7.607 7.607 0 0 0-7.606 7.605zm-67.152 7.602h49.41a7.604 7.604 0 1 0 0-15.207h-49.41a7.604 7.604 0 0 0 0 15.207zM426.39 62.188l-40.75 95.085-36.148-43.046a7.603 7.603 0 1 0-11.64 9.78l44.09 52.505a7.603 7.603 0 0 0 6.933 2.633 7.6 7.6 0 0 0 5.875-4.528l45.617-106.441a7.603 7.603 0 1 0-13.976-5.989zm0 0"></path><path d="M505.402 178.355l-15.816-13.167c7.828-15.477 12.219-32.891 12.219-51.137 0-20.633-5.594-40.84-16.168-58.43a7.606 7.606 0 0 0-13.035 7.836c9.156 15.223 13.996 32.719 13.996 50.59 0 46.89-33.332 87.473-79.262 96.488a98.905 98.905 0 0 1-19.07 1.856c-54.223 0-98.336-44.118-98.336-98.344 0-54.219 44.113-98.332 98.336-98.332 6.406 0 12.82.625 19.07 1.855 17.8 3.496 34.285 11.887 47.676 24.274a7.61 7.61 0 0 0 10.746-.422c2.851-3.082 2.66-7.895-.422-10.746-15.461-14.297-34.504-23.988-55.063-28.028a114.37 114.37 0 0 0-22.007-2.14c-25.778 0-49.567 8.64-68.649 23.168l-1.347-1.125c-36.094-30.067-88.497-30.067-124.602 0l-3.418 2.851h-71.21c-34.606 0-62.763 28.149-62.763 62.75v49.305L4.836 180.285c-.152.063-.305.125-.457.2a7.596 7.596 0 0 0-4.375 6.882V396.48c0 4.2 3.402 7.602 7.601 7.602s7.606-3.402 7.606-7.602V203.594l178.46 148.593c18.052 15.032 40.177 22.551 62.302 22.547 22.125 0 44.25-7.515 62.293-22.546l178.468-148.594v253.113c0 22.106-17.98 40.086-40.086 40.086H55.293c-22.106 0-40.086-17.98-40.086-40.086v-29.812a7.604 7.604 0 0 0-15.207 0v29.812C0 487.195 24.805 512 55.293 512h401.355c30.489 0 55.293-24.805 55.293-55.293V187.563c.094-3.684-1.046-4.633-6.539-9.208zM295.582 25.402h-79.223c24.621-13.574 54.61-13.574 79.223 0zM56.277 157.242V218l-36.484-30.379zm252.258 183.262c-30.453 25.367-74.668 25.367-105.133-.004L71.484 230.66V88.152c0-26.218 21.332-47.547 47.555-47.547H301.75c-16.844 19.813-27.023 45.461-27.023 73.446 0 62.61 50.933 113.547 113.539 113.547 7.39 0 14.796-.72 22.004-2.141a112.384 112.384 0 0 0 30.195-10.578v15.777zm147.137-122.508v-12.601a114.146 114.146 0 0 0 26.062-26.957c3.325 2.765 7.348 6.117 10.727 8.93zm0 0"></path></svg><svg width="24" height="24" viewBox="0 0 24 24" id="transport" y="13100"><path fill-rule="evenodd" clip-rule="evenodd" d="M23.841 11.935l-1.41-1.966h.001l-2.269-4.882a.753.753 0 0 0-.676-.45h-3.226v-.819c0-.452-.339-.818-.757-.818H2.9c-.418 0-.756.366-.756.818 0 .452.338.818.756.818h11.849v5.728c0 .452.338.818.756.818h5.882l1.101 1.535v4.22h-1.425c-.328-1.424-1.52-2.482-2.936-2.482s-2.608 1.058-2.936 2.481h-4.464c-.328-1.423-1.52-2.481-2.936-2.481s-2.608 1.058-2.936 2.481H2.899c-.418 0-.756.367-.756.819 0 .451.338.818.756.818h1.968C5.212 19.969 6.392 21 7.79 21c1.398 0 2.577-1.031 2.923-2.427h4.49C15.55 19.969 16.728 21 18.126 21c1.398 0 2.578-1.031 2.923-2.427h2.195c.417 0 .756-.367.756-.818v-5.319a.864.864 0 0 0-.159-.501zm-4.82-5.662l1.521 3.272H16.26V6.273h2.761zM7.79 19.363c-.834 0-1.513-.733-1.513-1.636 0-.902.679-1.636 1.513-1.636.834 0 1.513.734 1.513 1.636 0 .903-.679 1.637-1.513 1.637zm10.336 0c-.834 0-1.513-.733-1.513-1.636 0-.902.679-1.636 1.513-1.636.834 0 1.513.734 1.513 1.636 0 .903-.679 1.637-1.513 1.637zM1.992 12.792H5.47c.417 0 .756.366.756.818 0 .452-.339.818-.756.818H1.99c-.417 0-.756-.366-.756-.818 0-.452.339-.818.757-.818zM7.21 9.573H.756c-.417 0-.756.366-.756.818 0 .452.339.818.756.818H7.21c.418 0 .756-.366.756-.818 0-.452-.338-.818-.756-.818zM1.992 6.355h6.453c.418 0 .757.366.757.818 0 .452-.339.818-.757.818H1.992c-.418 0-.757-.366-.757-.818 0-.452.339-.818.757-.818z"></path></svg><svg height="512" viewBox="0 0 512 512" width="512" id="upload" y="13124"><path d="M182.461 155.48L232 105.941V368a24 24 0 0 0 48 0V105.941l49.539 49.539a24 24 0 1 0 33.941-33.941l-90.509-90.51a24 24 0 0 0-33.942 0l-90.509 90.51a24 24 0 1 0 33.941 33.941z"></path><path d="M464 232a24 24 0 0 0-24 24v184H72V256a24 24 0 0 0-48 0v192a40 40 0 0 0 40 40h384a40 40 0 0 0 40-40V256a24 24 0 0 0-24-24z"></path></svg><svg viewBox="0 0 19.738 19.738" width="19.738" height="19.738" id="user" y="13636"><path d="M18.18 19.738h-2c0-3.374-2.83-6.118-6.311-6.118s-6.31 2.745-6.31 6.118h-2c0-4.478 3.729-8.118 8.311-8.118 4.581 0 8.31 3.64 8.31 8.118zM9.87 10.97a5.492 5.492 0 0 1-5.484-5.485A5.49 5.49 0 0 1 9.87 0c3.025 0 5.486 2.46 5.486 5.485S12.895 10.97 9.87 10.97zm0-8.97C7.948 2 6.385 3.563 6.385 5.485S7.948 8.97 9.87 8.97c1.923 0 3.486-1.563 3.486-3.485S11.791 2 9.87 2z"></path></svg><svg width="24" height="24" viewBox="0 0 24 24" id="view" y="13656"><path fill-rule="evenodd" clip-rule="evenodd" d="M22.87 11.862l.007.013a.917.917 0 0 1 0 .917l-.008.013c-.251.422-4.09 6.862-10.869 6.862-6.78 0-10.618-6.44-10.87-6.863l-.007-.012a.917.917 0 0 1 .007-.93C1.382 11.44 5.22 5 12 5c6.78 0 10.618 6.44 10.87 6.862zm-19.86.471c.944 1.394 4.152 5.5 8.99 5.5 4.857 0 8.046-4.106 8.99-5.5-.944-1.393-4.142-5.5-8.99-5.5-4.847 0-8.073 4.107-8.99 5.5zm4.408 0A4.583 4.583 0 1 1 12 16.917a4.583 4.583 0 0 1-4.582-4.584zm1.833 0a2.75 2.75 0 1 0 5.499.001 2.75 2.75 0 0 0-5.5 0z"></path></svg></svg>