<svg width="449" height="252" viewBox="0 0 449 252" fill="none" xmlns="http://www.w3.org/2000/svg">
    <rect x="0.0290527" y="211.164" width="448" height="2" rx="1" fill="#6A79A8"/>
    <path d="M383.848 251.313H57.8134C48.89 251.313 41.6309 244.054 41.6309 235.131V234.158C41.6309 233.633 42.054 233.21 42.5789 233.21H399.103C399.628 233.21 400.051 233.633 400.051 234.158V235.106C400.055 244.042 392.784 251.313 383.848 251.313Z"
          fill="#E3E3E3"/>
    <path d="M369.098 240.111V60.1628C369.098 56.9035 366.534 54.2383 363.405 54.2383H78.5245C75.3913 54.2383 72.8319 56.9035 72.8319 60.1628V240.111H369.098Z"
          fill="#E3E3E3"/>
    <path d="M373.968 233.079V60.0849C373.968 56.9518 371.405 54.3923 368.276 54.3923H83.3993C80.2662 54.3923 77.7068 56.9558 77.7068 60.0849V233.075H373.968V233.079Z"
          fill="white"/>
    <path d="M374.965 233.006C374.965 227.981 374.965 222.956 374.965 217.931C374.965 205.626 374.965 193.321 374.965 181.021C374.965 165.664 374.965 150.308 374.965 134.951C374.965 120.555 374.965 106.159 374.965 91.7625C374.965 82.5706 374.965 73.3746 374.965 64.1827C374.965 62.7992 375.014 61.4036 374.965 60.0201C374.811 55.7395 371.368 53.6643 367.482 53.6643C362.522 53.6643 357.566 53.6643 352.606 53.6643C342.686 53.6643 332.769 53.6643 322.849 53.6643C309.568 53.6643 296.282 53.6643 283.001 53.6643C267.767 53.6643 252.528 53.6643 237.294 53.6643C221.689 53.6643 206.08 53.6643 190.476 53.6643C176.088 53.6643 161.704 53.6643 147.316 53.6643C135.552 53.6643 123.788 53.6643 112.021 53.6643C104.477 53.6643 96.9329 53.6643 89.3889 53.6643C84.3596 53.6643 76.9906 52.9237 76.7058 60.1706C76.5023 65.379 76.7058 70.6362 76.7058 75.8486C76.7058 88.2632 76.7058 100.678 76.7058 113.092C76.7058 128.469 76.7058 143.846 76.7058 159.223C76.7058 173.55 76.7058 187.881 76.7058 202.208C76.7058 211.266 76.7058 220.323 76.7058 229.385C76.7058 230.638 76.7058 231.896 76.7058 233.149C76.7058 233.662 77.1819 233.808 77.6172 233.808C80.2458 233.808 82.8785 233.808 85.5071 233.808C92.7092 233.808 99.9114 233.808 107.114 233.808C117.722 233.808 128.325 233.808 138.933 233.808C151.934 233.808 164.938 233.808 177.939 233.808C192.115 233.808 206.292 233.808 220.468 233.808C234.779 233.808 249.09 233.808 263.397 233.808C276.804 233.808 290.207 233.808 303.615 233.808C314.89 233.808 326.165 233.808 337.445 233.808C345.562 233.808 353.676 233.808 361.794 233.808C365.643 233.808 369.545 233.991 373.39 233.808C373.553 233.8 373.72 233.808 373.887 233.808C375.018 233.808 375.388 232.347 374.054 232.347C371.425 232.347 368.792 232.347 366.164 232.347C358.962 232.347 351.76 232.347 344.557 232.347C333.949 232.347 323.346 232.347 312.738 232.347C299.737 232.347 286.732 232.347 273.732 232.347C259.555 232.347 245.379 232.347 231.203 232.347C216.892 232.347 202.581 232.347 188.274 232.347C174.867 232.347 161.464 232.347 148.056 232.347C136.781 232.347 125.502 232.347 114.226 232.347C106.109 232.347 97.9949 232.347 89.8772 232.347C87.3381 232.347 84.7991 232.347 82.26 232.347C80.9945 232.347 79.5297 232.14 78.2805 232.347C78.1259 232.372 77.9468 232.347 77.7841 232.347C78.0892 232.567 78.3904 232.787 78.6955 233.006C78.6955 228.063 78.6955 223.115 78.6955 218.171C78.6955 206.098 78.6955 194.029 78.6955 181.956C78.6955 166.759 78.6955 151.561 78.6955 136.363C78.6955 121.983 78.6955 107.603 78.6955 93.2233C78.6955 83.8035 78.6955 74.3797 78.6955 64.9599C78.6955 63.3363 78.6386 61.7006 78.6955 60.073C78.8217 56.5777 81.4299 55.121 84.4573 55.121C89.5924 55.121 94.7316 55.121 99.8667 55.121C109.775 55.121 119.683 55.121 129.587 55.121C142.803 55.121 156.015 55.121 169.231 55.121C184.348 55.121 199.464 55.121 214.576 55.121C229.982 55.121 245.391 55.121 260.797 55.121C275.083 55.121 289.369 55.121 303.66 55.121C315.399 55.121 327.134 55.121 338.873 55.121C346.478 55.121 354.087 55.121 361.692 55.121C365.956 55.121 372.707 53.9776 372.967 60.2602C373.203 65.8917 372.967 71.5842 372.967 77.2198C372.967 89.6833 372.967 102.143 372.967 114.606C372.967 129.881 372.967 145.152 372.967 160.427C372.967 174.567 372.967 188.707 372.967 202.847C372.967 211.713 372.967 220.58 372.967 229.45C372.967 230.683 372.967 231.916 372.967 233.149C372.975 234.191 374.965 233.906 374.965 233.006Z"
          fill="#6A79A8"/>
    <path d="M388.844 251.313H62.8099C53.8866 251.313 46.6274 244.054 46.6274 235.131V234.158C46.6274 233.633 47.0506 233.21 47.5755 233.21H404.099C404.624 233.21 405.047 233.633 405.047 234.158V235.106C405.047 244.042 397.78 251.313 388.844 251.313Z"
          fill="#EFEFEF"/>
    <path d="M386.586 246.349H65.0644C56.2631 246.349 49.1057 241.08 49.1057 234.602V233.898C49.1057 233.519 49.5248 233.21 50.0416 233.21H401.63C402.146 233.21 402.565 233.519 402.565 233.898V234.586C402.57 241.076 395.4 246.349 386.586 246.349Z"
          fill="white"/>
    <path d="M389.353 250.642C385.944 250.642 382.534 250.642 379.128 250.642C369.985 250.642 360.842 250.642 351.695 250.642C338.295 250.642 324.896 250.642 311.497 250.642C295.489 250.642 279.482 250.642 263.474 250.642C246.352 250.642 229.233 250.642 212.111 250.642C195.351 250.642 178.59 250.642 161.83 250.642C147.104 250.642 132.382 250.642 117.657 250.642C106.402 250.642 95.1509 250.642 83.8959 250.642C77.7477 250.642 71.5953 250.642 65.447 250.642C63.3718 250.642 61.378 250.658 59.3353 250.084C53.4678 248.428 49.0366 243.301 48.0967 237.303C48.0072 236.734 48.2391 234.358 47.9014 233.971C45.0693 230.777 46.876 234.028 47.1079 233.885C47.1649 233.849 47.348 233.89 47.4171 233.885C51.6367 233.633 55.9458 233.885 60.1735 233.885C69.5852 233.885 78.9928 233.885 88.4044 233.885C101.617 233.885 114.829 233.885 128.037 233.885C143.792 233.885 159.547 233.885 175.302 233.885C192.384 233.885 209.466 233.885 226.548 233.885C243.536 233.885 260.52 233.885 277.508 233.885C293.239 233.885 308.966 233.885 324.697 233.885C337.754 233.885 350.816 233.885 363.873 233.885C373.045 233.885 382.212 233.885 391.384 233.885C394.126 233.885 396.865 233.885 399.607 233.885C400.503 233.885 402.557 233.483 403.383 233.885C404.681 234.516 403.367 239.106 403.021 240.201C401.105 246.19 395.693 250.532 389.353 250.642C388.466 250.658 386.623 252.017 388.332 251.985C393.776 251.891 399.05 249.629 402.541 245.38C404.287 243.261 405.507 240.689 406.028 237.991C406.329 236.412 407.16 232.946 404.893 232.559C404.035 232.413 403.062 232.539 402.195 232.539C396.071 232.539 389.948 232.539 383.824 232.539C372.866 232.539 361.904 232.539 350.946 232.539C336.424 232.539 321.901 232.539 307.383 232.539C290.696 232.539 274.005 232.539 257.318 232.539C239.894 232.539 222.467 232.539 205.043 232.539C188.104 232.539 171.164 232.539 154.221 232.539C139.247 232.539 124.273 232.539 109.299 232.539C97.5353 232.539 85.7677 232.539 74.0041 232.539C66.8874 232.539 59.7748 232.539 52.6581 232.539C51.242 232.539 49.8179 232.486 48.4059 232.539C47.3439 232.579 45.9726 232.779 45.4803 233.857C44.5973 235.786 45.6878 239.322 46.3714 241.141C47.3236 243.68 48.9145 245.987 50.9491 247.773C56.3161 252.485 62.794 251.985 69.3207 251.985C77.7314 251.985 86.138 251.985 94.5486 251.985C107.602 251.985 120.655 251.985 133.709 251.985C149.753 251.985 165.797 251.985 181.841 251.985C199.18 251.985 216.514 251.985 233.852 251.985C250.99 251.985 268.125 251.985 285.264 251.985C300.506 251.985 315.749 251.985 330.991 251.985C342.67 251.985 354.352 251.985 366.03 251.985C372.613 251.985 379.193 251.985 385.777 251.985C386.627 251.985 387.478 251.985 388.328 251.985C389.227 251.985 391.067 250.642 389.353 250.642Z"
          fill="#6A79A8"/>
    <path d="M184.641 233.214C185.096 235.949 187.477 238.04 190.337 238.04H261.338C264.198 238.04 266.579 235.949 267.034 233.214H184.641Z"
          fill="#EFEFEF"/>
    <path d="M183.656 233.479C184.856 239.049 190.056 238.703 194.439 238.703C200.534 238.703 206.634 238.703 212.729 238.703C226.995 238.703 241.261 238.703 255.531 238.703C260.402 238.703 266.672 239.371 268.023 233.125C268.096 232.783 267.669 232.551 267.384 232.551C258.119 232.551 248.854 232.551 239.585 232.551C224.802 232.551 210.015 232.551 195.232 232.551C191.818 232.551 188.404 232.551 184.991 232.551C184.116 232.551 182.96 233.877 184.283 233.877C193.548 233.877 202.813 233.877 212.082 233.877C226.865 233.877 241.652 233.877 256.434 233.877C259.848 233.877 263.262 233.877 266.676 233.877C266.465 233.686 266.253 233.495 266.037 233.304C264.939 238.402 259.543 237.373 255.653 237.373C249.761 237.373 243.869 237.373 237.977 237.373C224.554 237.373 211.134 237.373 197.71 237.373C195.761 237.373 193.812 237.373 191.863 237.373C188.876 237.373 186.321 236.213 185.617 232.95C185.442 232.12 183.473 232.62 183.656 233.479Z"
          fill="#6A79A8"/>
    <path d="M360.191 68.1421H91.4803V224.885H360.191V68.1421Z" fill="#F9F9F9"/>
    <path d="M360.573 67.5724C351.621 67.5724 342.665 67.5724 333.714 67.5724C312.355 67.5724 291.001 67.5724 269.643 67.5724C243.69 67.5724 217.738 67.5724 191.786 67.5724C169.48 67.5724 147.177 67.5724 124.871 67.5724C114.039 67.5724 103.155 67.251 92.3268 67.5724C92.1722 67.5765 92.0176 67.5724 91.863 67.5724C91.5456 67.5724 90.4999 67.7596 90.4999 68.2601C90.4999 73.4684 90.4999 78.6809 90.4999 83.8892C90.4999 96.3323 90.4999 108.775 90.4999 121.214C90.4999 136.331 90.4999 151.451 90.4999 166.568C90.4999 179.584 90.4999 192.605 90.4999 205.626C90.4999 209.943 90.4999 214.261 90.4999 218.574C90.4999 220.486 90.1214 222.846 90.4999 224.73C90.5161 224.812 90.4999 224.917 90.4999 225.003C90.4999 225.333 90.801 225.451 91.1061 225.451C100.058 225.451 109.014 225.451 117.966 225.451C139.324 225.451 160.678 225.451 182.037 225.451C207.989 225.451 233.941 225.451 259.893 225.451C282.2 225.451 304.502 225.451 326.808 225.451C337.64 225.451 348.525 225.772 359.352 225.451C359.507 225.446 359.662 225.451 359.816 225.451C360.134 225.451 361.179 225.263 361.179 224.763C361.179 219.555 361.179 214.342 361.179 209.134C361.179 196.691 361.179 184.248 361.179 171.809C361.179 156.692 361.179 141.572 361.179 126.455C361.179 113.434 361.179 100.418 361.179 87.3967C361.179 83.0795 361.179 78.7622 361.179 74.4491C361.179 72.5692 361.594 70.14 361.179 68.2927C361.159 68.2113 361.179 68.1055 361.179 68.02C361.179 67.1899 359.214 67.5968 359.214 68.2601C359.214 73.4684 359.214 78.6809 359.214 83.8892C359.214 96.3323 359.214 108.775 359.214 121.214C359.214 136.331 359.214 151.451 359.214 166.568C359.214 179.584 359.214 192.605 359.214 205.626C359.214 209.943 359.214 214.261 359.214 218.574C359.214 219.929 359.214 221.284 359.214 222.639C359.214 223.208 359.019 224.185 359.214 224.73C359.238 224.799 359.214 224.922 359.214 225.003C359.67 224.775 360.121 224.543 360.577 224.315C351.625 224.315 342.669 224.315 333.718 224.315C312.359 224.315 291.005 224.315 269.647 224.315C243.694 224.315 217.742 224.315 191.79 224.315C169.484 224.315 147.181 224.315 124.875 224.315C117.494 224.315 110.113 224.315 102.731 224.315C100.461 224.315 98.1862 224.315 95.9157 224.315C94.8374 224.315 93.3848 224.055 92.3309 224.315C92.1926 224.348 92.0095 224.315 91.867 224.315C92.0705 224.466 92.2699 224.616 92.4733 224.763C92.4733 219.555 92.4733 214.342 92.4733 209.134C92.4733 196.691 92.4733 184.248 92.4733 171.809C92.4733 156.692 92.4733 141.572 92.4733 126.455C92.4733 113.434 92.4733 100.418 92.4733 87.3967C92.4733 83.0795 92.4733 78.7622 92.4733 74.4491C92.4733 73.0941 92.4733 71.7391 92.4733 70.3841C92.4733 69.8145 92.6686 68.8379 92.4733 68.2927C92.4489 68.2235 92.4733 68.1014 92.4733 68.02C92.0176 68.2479 91.5659 68.4798 91.1102 68.7077C100.062 68.7077 109.018 68.7077 117.97 68.7077C139.328 68.7077 160.682 68.7077 182.041 68.7077C207.993 68.7077 233.945 68.7077 259.897 68.7077C282.204 68.7077 304.506 68.7077 326.812 68.7077C337.652 68.7077 348.521 68.9559 359.356 68.7077C359.511 68.7036 359.666 68.7077 359.82 68.7077C360.569 68.7077 361.896 67.5724 360.573 67.5724Z"
          fill="#6A79A8"/>
    <path d="M298.956 224.54L298.952 93.1711C298.952 89.7002 296.132 86.8885 292.649 86.8885L191.595 86.8926L158.034 120.425V120.454L158.038 224.535H298.956V224.54Z"
          fill="#EFEFEF"/>
    <path d="M298.96 224.539L298.956 97.1137C298.956 93.7282 296.274 90.9857 292.97 90.9857L196.966 90.9898L195.582 92.4099V117.43C195.582 121.084 192.62 124.047 188.966 124.047H168.934C166.159 124.047 163.909 126.297 163.909 129.072L163.913 224.539H298.96Z"
          fill="white"/>
    <path d="M299.937 224.279C299.937 215.221 299.937 206.164 299.937 197.106C299.937 178.698 299.937 160.289 299.937 141.885C299.937 127.302 299.937 112.723 299.937 98.1392C299.937 94.9084 300.575 90.7336 298.203 88.1701C295.457 85.2038 290.163 86.042 286.488 86.042C270.009 86.042 253.533 86.042 237.054 86.042C222.719 86.042 208.379 86.042 194.044 86.042C193.133 86.042 191.847 85.8467 191.013 86.3065C189.682 87.043 188.531 88.6991 187.477 89.753C181.394 95.8321 175.31 101.911 169.227 107.99C166.363 110.855 163.494 113.72 160.629 116.584C159.779 117.435 158.929 118.281 158.078 119.131C157.822 119.388 157.297 119.738 157.138 120.071C156.845 120.686 157.053 121.764 157.053 122.423C157.053 124.584 157.053 126.749 157.053 128.909C157.053 145.755 157.053 162.601 157.053 179.446C157.053 193.778 157.053 208.113 157.053 222.444C157.053 223.229 157.053 224.014 157.053 224.8C157.053 225.007 157.521 224.995 157.626 224.995C162.298 224.995 166.969 224.995 171.636 224.995C182.85 224.995 194.069 224.995 205.283 224.995C218.853 224.995 232.423 224.995 245.993 224.995C257.724 224.995 269.46 224.995 281.191 224.995C286.842 224.995 292.657 225.394 298.297 224.995C298.378 224.991 298.459 224.995 298.537 224.995C299.151 224.995 300.661 224.08 299.355 224.08C294.683 224.08 290.012 224.08 285.345 224.08C274.131 224.08 262.912 224.08 251.698 224.08C238.128 224.08 224.558 224.08 210.988 224.08C199.257 224.08 187.522 224.08 175.791 224.08C171.937 224.08 168.084 224.08 164.235 224.08C163.022 224.08 161.805 224.08 160.593 224.08C160.076 224.08 159.181 223.905 158.684 224.08C158.623 224.104 158.514 224.08 158.444 224.08C158.636 224.145 158.827 224.21 159.018 224.275C159.018 217.459 159.018 210.64 159.018 203.824C159.018 189.733 159.018 175.638 159.018 161.547C159.018 149.718 159.018 137.894 159.018 126.065C159.018 124.576 159.018 123.086 159.018 121.597C159.018 121.097 158.863 120.307 159.018 119.819C158.908 120.165 159.132 119.791 159.315 119.616C159.795 119.16 160.255 118.676 160.723 118.208C162.501 116.429 164.283 114.651 166.062 112.873C171.071 107.868 176.084 102.859 181.093 97.8544C184.694 94.2574 188.478 90.7784 191.924 87.0308C192.103 86.8355 192.303 86.6524 192.494 86.4611C192.059 86.628 191.623 86.7907 191.188 86.9576C205.934 86.9576 220.684 86.9576 235.43 86.9576C253.668 86.9576 271.901 86.9576 290.138 86.9576C293.267 86.9576 296.376 87.4499 297.617 90.9615C298.114 92.3694 297.971 93.9807 297.971 95.4537C297.971 101.769 297.971 108.084 297.971 114.399C297.971 136.115 297.971 157.836 297.971 179.552C297.971 189.277 297.971 199.006 297.971 208.731C297.971 213.834 297.78 218.981 297.971 224.084C297.979 224.324 297.971 224.564 297.971 224.8C297.971 225.235 299.937 224.922 299.937 224.279Z"
          fill="#6A79A8"/>
    <path d="M191.664 86.5022V113.516C191.664 117.17 188.702 120.133 185.048 120.133H158.034L191.664 86.5022Z"
          fill="white"/>
    <path d="M190.676 86.5995C190.676 94.9125 190.676 103.226 190.676 111.539C190.676 113.04 190.802 114.603 190.216 116.023C189.17 118.57 186.879 119.489 184.332 119.489C179.783 119.489 175.234 119.489 170.685 119.489C166.587 119.489 162.49 119.489 158.392 119.489C158.543 119.786 158.693 120.079 158.844 120.376C168.646 110.574 178.448 100.772 188.251 90.9656C189.658 89.5577 191.066 88.1498 192.474 86.742C193.321 85.8956 191.412 85.7125 190.859 86.2699C181.056 96.0722 171.254 105.874 161.452 115.681C160.044 117.089 158.636 118.497 157.228 119.904C156.825 120.307 157.171 120.792 157.68 120.792C166.384 120.792 175.083 120.792 183.787 120.792C188.425 120.792 192.584 118.212 192.657 113.15C192.722 108.743 192.657 104.328 192.657 99.9215C192.657 95.4171 192.657 90.9168 192.657 86.4124C192.657 85.4643 190.676 85.8142 190.676 86.5995Z"
          fill="#6A79A8"/>
    <path d="M197.116 187.246C214.45 187.246 231.788 187.246 249.122 187.246C251.556 187.246 253.989 187.246 256.422 187.246C257.207 187.246 258.493 186.062 257.167 186.062C239.833 186.062 222.495 186.062 205.161 186.062C202.727 186.062 200.294 186.062 197.861 186.062C197.075 186.062 195.79 187.246 197.116 187.246Z"
          fill="#6A79A8"/>
    <path d="M170.928 213.561C183.534 213.561 196.14 213.561 208.741 213.561C228.749 213.561 248.752 213.561 268.759 213.561C273.357 213.561 277.955 213.561 282.553 213.561C283.2 213.561 284.669 212.592 283.355 212.592C270.749 212.592 258.143 212.592 245.542 212.592C225.534 212.592 205.531 212.592 185.523 212.592C180.925 212.592 176.327 212.592 171.729 212.592C171.082 212.588 169.614 213.561 170.928 213.561Z"
          fill="#6A79A8"/>
    <path d="M170.928 203.795C183.534 203.795 196.14 203.795 208.741 203.795C228.749 203.795 248.752 203.795 268.759 203.795C273.357 203.795 277.955 203.795 282.553 203.795C283.2 203.795 284.669 202.826 283.355 202.826C270.749 202.826 258.143 202.826 245.542 202.826C225.534 202.826 205.531 202.826 185.523 202.826C180.925 202.826 176.327 202.826 171.729 202.826C171.082 202.822 169.614 203.795 170.928 203.795Z"
          fill="#6A79A8"/>
    <path d="M207.354 154.54C212.668 149.209 221.07 146.63 228.399 146.617C235.686 146.605 244.492 149.165 249.655 153.982C250.278 154.564 252.133 153.763 251.458 153.132C245.472 147.553 236.333 145.144 228.366 145.234C220.411 145.323 211.459 148.245 205.722 154.003C204.859 154.865 206.755 155.138 207.354 154.54Z"
          fill="#6A79A8"/>
    <path d="M203.101 136.078C203.101 134.292 201.653 132.844 199.866 132.844C198.08 132.844 196.632 134.292 196.632 136.078C196.632 137.865 198.08 139.313 199.866 139.313C201.653 139.313 203.101 137.865 203.101 136.078Z"
          fill="#6A79A8"/>
    <path d="M257.097 139.239C258.835 138.827 259.911 137.084 259.499 135.345C259.087 133.607 257.344 132.531 255.606 132.943C253.867 133.355 252.792 135.098 253.203 136.837C253.615 138.575 255.358 139.651 257.097 139.239Z"
          fill="#6A79A8"/>
    <path d="M129.172 156.244C127.833 144.81 126.498 133.38 125.16 121.946C123.04 103.815 120.92 85.683 118.796 67.5555C118.307 63.397 117.823 59.2384 117.335 55.0799C117.262 54.4492 115.284 54.8805 115.37 55.6048C116.708 67.0388 118.043 78.4686 119.382 89.9026C121.502 108.034 123.622 126.166 125.746 144.293C126.234 148.452 126.718 152.61 127.206 156.769C127.284 157.404 129.257 156.972 129.172 156.244Z"
          fill="#6A79A8"/>
    <path d="M218.198 57.969L125.131 69.0815C121.282 69.5413 117.791 66.7947 117.331 62.9454L112.22 20.1678C111.76 16.3185 114.507 12.8273 118.356 12.3675L211.427 1.25497C215.276 0.795168 218.768 3.54176 219.227 7.39105L224.334 50.1646C224.794 54.0139 222.043 57.5092 218.198 57.969Z"
          fill="#E1EDF0"/>
    <path d="M218.198 57.9695L130.694 68.4147C126.844 68.8745 123.353 66.1279 122.893 62.2786L118.405 24.6849C117.945 20.8356 120.692 17.3444 124.541 16.8846L212.046 6.43942C215.895 5.97962 219.386 8.72621 219.846 12.5755L224.334 50.1692C224.794 54.0144 222.043 57.5097 218.198 57.9695Z"
          fill="#F7FDFF"/>
    <path d="M218.589 57.5259C211.81 58.3357 205.027 59.1454 198.248 59.9551C184.747 61.5665 171.241 63.1778 157.74 64.7932C147.771 65.9854 137.802 67.1736 127.833 68.3658C127.093 68.4553 126.348 68.5652 125.607 68.6303C121.835 68.968 118.824 66.2499 118.279 62.6081C117.693 58.7059 117.343 54.7549 116.875 50.8405C116.061 44.0371 115.252 37.2378 114.438 30.4344C114.011 26.8414 113.396 23.2159 113.156 19.6067C112.936 16.3311 115.024 13.202 118.356 12.7016C119.349 12.551 120.358 12.4615 121.355 12.3435C125.62 11.8349 129.888 11.3262 134.152 10.8176C147.458 9.23068 160.76 7.63969 174.065 6.05277C184.962 4.75069 195.859 3.45267 206.756 2.15058C209.787 1.78844 213.002 0.950218 215.643 3.02949C218.959 5.63773 218.678 11.5053 219.134 15.3261C220.505 26.8048 221.937 38.2794 223.248 49.7663C223.634 53.1802 222.157 56.9603 218.349 57.5625C217.543 57.6887 216.611 58.5432 217.995 58.3275C222.125 57.6724 225.612 54.6044 225.315 50.1569C225.237 49.0054 225.05 47.8579 224.916 46.7145C224.167 40.4401 223.419 34.1657 222.67 27.8912C221.941 21.808 221.217 15.7208 220.489 9.63758C220.306 8.11577 220.249 6.45561 219.614 5.04366C218.214 1.95527 215 0.52704 211.745 0.832216C203.757 1.58092 195.786 2.73652 187.819 3.68867C173.65 5.38138 159.482 7.07003 145.314 8.76274C136.59 9.80441 127.862 10.7932 119.146 11.8878C114.129 12.5185 110.711 15.9649 111.309 21.1611C111.911 26.3735 112.554 31.5818 113.176 36.7942C113.994 43.6343 114.808 50.4743 115.626 57.3143C116.159 61.7862 116 67.3119 121.156 69.1064C123.679 69.9853 126.791 69.2203 129.375 68.911C134.258 68.3292 139.137 67.7473 144.02 67.1614C158.054 65.4849 172.084 63.8126 186.118 62.1361C196.148 60.9398 206.174 59.7435 216.204 58.5432C216.721 58.4821 217.242 58.4211 217.759 58.356C218.275 58.2868 219.866 57.3754 218.589 57.5259Z"
          fill="#6A79A8"/>
    <path d="M143.596 51.7673L143.071 47.3606L131.181 48.7806C129.68 48.9597 128.516 48.7562 127.686 48.1662C126.856 47.5762 126.368 46.6973 126.229 45.5295C126.193 45.2284 126.213 44.9191 126.286 44.5977C126.36 44.2762 126.486 43.9344 126.669 43.5682C126.848 43.202 127.039 42.848 127.239 42.5021C127.438 42.1563 127.682 41.7372 127.975 41.2367L138.526 22.9423C139.214 21.7379 139.796 20.8549 140.264 20.2975C140.731 19.736 141.338 19.4104 142.082 19.325C144.483 19.0402 145.846 20.269 146.176 23.0156L148.365 41.3506L149.382 41.2285C150.599 41.0821 151.592 41.1349 152.369 41.375C153.142 41.6192 153.598 42.3028 153.732 43.4217C153.842 44.3373 153.622 45.0412 153.073 45.5295C152.523 46.0178 151.649 46.3352 150.448 46.4816L149.004 46.6525L149.529 51.0593C149.675 52.2759 149.512 53.2118 149.049 53.8669C148.581 54.522 147.897 54.9045 146.998 55.0144C146.115 55.1202 145.362 54.9005 144.744 54.3593C144.117 53.814 143.738 52.9514 143.596 51.7673ZM132.252 43.2712L142.436 42.0545L140.792 28.2931L132.252 43.2712Z"
          fill="#006B8F"/>
    <path d="M180.299 33.1644C180.608 35.7564 180.714 37.9984 180.624 39.9027C180.531 41.8029 180.148 43.5648 179.477 45.1802C178.626 47.174 177.406 48.7732 175.823 49.9898C174.236 51.2024 172.405 51.9348 170.317 52.183C167.917 52.4678 165.683 52.0487 163.62 50.9175C161.553 49.7863 159.897 48.0774 158.647 45.7946C158 44.5414 157.467 43.1376 157.052 41.5751C156.633 40.0166 156.316 38.3117 156.092 36.4644C155.807 34.0799 155.677 31.9193 155.701 29.9743C155.726 28.0333 155.925 26.3447 156.3 24.9043C156.959 22.5198 158.106 20.6237 159.742 19.2198C161.378 17.816 163.425 16.9656 165.89 16.6726C167.518 16.4773 169.023 16.5668 170.415 16.9371C171.803 17.3074 173.06 17.9422 174.187 18.8414C175.31 19.7407 176.311 20.8963 177.186 22.3164C178.687 24.7781 179.729 28.3955 180.299 33.1644ZM173.752 33.4655C173.406 30.5765 172.95 28.2327 172.384 26.4342C171.819 24.6357 171.066 23.3173 170.134 22.4751C169.203 21.6328 168.006 21.2991 166.554 21.4741C164.47 21.7223 163.144 22.9471 162.582 25.1443C162.021 27.3416 162 30.6294 162.521 35.0036C162.875 37.974 163.339 40.3828 163.913 42.2383C164.487 44.0938 165.243 45.4569 166.179 46.3277C167.115 47.2025 168.287 47.5525 169.695 47.3856C171.148 47.2107 172.226 46.5718 172.926 45.461C173.626 44.3542 174.028 42.8405 174.138 40.9199C174.244 38.9953 174.114 36.5132 173.752 33.4655Z"
          fill="#006B8F"/>
    <path d="M201.254 44.8826L200.729 40.4799L188.839 41.9C187.338 42.0791 186.174 41.8756 185.34 41.2856C184.51 40.6956 184.022 39.8167 183.883 38.6489C183.847 38.3478 183.867 38.0385 183.94 37.7171C184.013 37.3956 184.14 37.0538 184.323 36.6876C184.502 36.3214 184.693 35.9674 184.892 35.6215C185.092 35.2797 185.336 34.8566 185.629 34.3561L196.18 16.0617C196.868 14.8573 197.449 13.9743 197.917 13.4169C198.385 12.8553 198.992 12.5298 199.736 12.4444C202.137 12.1595 203.5 13.3884 203.83 16.135L206.019 34.4659L207.036 34.3439C208.253 34.1974 209.245 34.2503 210.023 34.4903C210.796 34.7345 211.252 35.4181 211.386 36.5371C211.496 37.4526 211.276 38.1565 210.727 38.6448C210.177 39.1331 209.302 39.4505 208.102 39.5929L206.658 39.7638L207.182 44.1705C207.329 45.3872 207.166 46.3231 206.702 46.9782C206.234 47.6333 205.555 48.0158 204.652 48.1216C203.769 48.2274 203.016 48.0076 202.397 47.4665C201.775 46.9334 201.396 46.0667 201.254 44.8826ZM189.909 36.3865L200.094 35.1699L198.45 21.4084L189.909 36.3865Z"
          fill="#006B8F"/>
    <path d="M298.162 157.05C298.228 160.834 300.742 165.017 302.952 167.894C308.298 174.835 316.64 178.184 325.136 179.201C325.685 179.267 327.427 178.355 326.365 178.229C317.934 177.22 309.784 173.834 304.575 166.885C302.512 164.13 300.185 160.114 300.124 156.521C300.116 156.012 298.15 156.358 298.162 157.05Z"
          fill="#6A79A8"/>
    <path d="M158.522 157.176C154.676 156.985 150.514 154.967 147.185 153.237C139.304 149.144 132.716 142.996 127.597 135.777C127.251 135.289 125.465 136.07 125.632 136.302C130.873 143.691 137.615 149.994 145.729 154.112C149.159 155.854 153.325 157.799 157.256 157.994C157.687 158.018 159.49 157.225 158.522 157.176Z"
          fill="#6A79A8"/>
</svg>
